<svg width="180" height="92" viewBox="0 0 180 92" fill="none" xmlns="http://www.w3.org/2000/svg">
<path d="M0 58.2776C1.23776 58.3374 2.17056 58.3792 2.80419 58.4091C3.43202 58.439 3.95824 58.4569 4.38272 58.4569C4.89696 58.4569 5.52479 58.439 6.26621 58.4091C7.00763 58.3792 7.95833 58.3372 9.11225 58.2776V59.4614C7.83856 59.4614 7.03751 59.6229 6.70267 59.9518C6.37375 60.2806 6.20633 61.0819 6.20633 62.3675V69.7577H18.9421V62.3675C18.9421 61.0819 18.7806 60.2868 18.4579 59.9697C18.1349 59.6529 17.3278 59.4855 16.0363 59.4614L16.0183 58.2776C17.262 58.3374 18.1948 58.3792 18.8286 58.4091C19.4623 58.439 19.9765 58.4569 20.3711 58.4569C20.9213 58.4569 21.5729 58.439 22.3204 58.4091C23.0737 58.3792 24.0125 58.3372 25.1484 58.2776V59.4614C23.845 59.4854 23.0378 59.6469 22.7209 59.9518C22.4041 60.2568 22.2426 61.0578 22.2426 62.3675V79.9523C22.2426 81.2917 22.41 82.1107 22.7448 82.4098C23.0796 82.7028 23.8809 82.8643 25.1484 82.8881V84.0361C23.875 83.9642 22.9181 83.9165 22.2786 83.8926C21.6388 83.8687 21.1424 83.8567 20.7778 83.8567C20.3414 83.8567 19.7793 83.8687 19.0796 83.8926C18.3861 83.9165 17.3636 83.9642 16.0183 84.0361V82.8702C17.2859 82.8702 18.093 82.7028 18.4339 82.3739C18.7747 82.0391 18.9422 81.2319 18.9422 79.9523V70.9416H6.20645V79.9523C6.20645 81.2199 6.35597 82.0211 6.66094 82.344C6.9659 82.6728 7.78498 82.8523 9.11238 82.888V84.036C7.67744 83.9641 6.67279 83.9163 6.09892 83.8925C5.52492 83.8685 5.08241 83.8566 4.76559 83.8566C4.32321 83.8566 3.74316 83.8685 3.03162 83.8925C2.32008 83.9163 1.30962 83.9641 0.000126071 84.036V82.8701C1.26184 82.8701 2.06302 82.7086 2.39786 82.3918C2.73863 82.0688 2.90618 81.2556 2.90618 79.9522V62.3673C2.90618 61.0518 2.74468 60.2386 2.41576 59.9458C2.08697 59.6469 1.28567 59.4854 0.000126071 59.4614V58.2776H0ZM40.9993 73.4946V73.0222C40.9993 71.2823 40.6406 69.937 39.9289 68.9863C39.2175 68.0415 38.201 67.5693 36.8795 67.5693C35.4565 67.5693 34.2965 68.1133 33.3996 69.2075C32.5088 70.3017 31.9886 71.8084 31.851 73.7398L40.9993 73.4946ZM43.6899 74.5231L31.8153 74.8161V75.0613C31.8153 77.5247 32.2995 79.3961 33.2622 80.6637C34.225 81.9312 35.648 82.5651 37.5254 82.5651C38.8229 82.5651 39.935 82.2482 40.8738 81.6203C41.8066 80.9864 42.4942 80.0837 42.9367 78.9058L43.7259 79.2047C43.2238 80.843 42.3447 82.1105 41.0892 83.0074C39.8335 83.9103 38.3088 84.3586 36.5092 84.3586C34.0336 84.3586 32.0964 83.5874 30.7093 82.0507C29.3162 80.5141 28.6224 78.3675 28.6224 75.6111C28.6224 72.9443 29.3819 70.7799 30.9005 69.1057C32.4193 67.4376 34.3745 66.6004 36.7721 66.6004C38.9187 66.6004 40.6167 67.2282 41.8605 68.4898C43.1042 69.7514 43.7259 71.4914 43.7259 73.6977C43.7259 73.8052 43.72 73.9429 43.708 74.1282C43.6959 74.3076 43.69 74.4391 43.69 74.5228L43.6899 74.5231ZM56.3121 75.5693C53.3285 76.1673 51.4031 76.7532 50.5422 77.3332C49.6752 77.9132 49.2447 78.7443 49.2447 79.8325C49.2447 80.7235 49.4958 81.4411 50.004 81.9911C50.5123 82.541 51.17 82.8162 51.9712 82.8162C52.7784 82.8162 53.5258 82.5889 54.2193 82.1405C54.9128 81.686 55.5767 80.9925 56.2044 80.0538L56.3121 75.5692V75.5693ZM59.2179 72.8728L59.0685 78.5828C59.0685 78.7921 59.0685 79.1269 59.0565 79.5753C59.0444 80.0239 59.0385 80.3587 59.0385 80.58C59.0385 81.2377 59.164 81.7219 59.4092 82.0269C59.6544 82.3379 60.031 82.4934 60.5453 82.4934C60.916 82.4934 61.2388 82.4097 61.5081 82.2363C61.7771 82.0689 62.0102 81.8117 62.2076 81.459L62.8056 81.8117C62.3989 82.6667 61.8846 83.3065 61.2689 83.7251C60.653 84.1497 59.9177 84.3587 59.0686 84.3587C58.2016 84.3587 57.5199 84.1197 57.0236 83.6473C56.5215 83.1749 56.2463 82.4993 56.1866 81.6323C55.4153 82.571 54.5782 83.2587 53.6633 83.7011C52.7545 84.1376 51.7082 84.3588 50.5303 84.3588C49.3164 84.3588 48.3419 84.0061 47.6124 83.3065C46.883 82.607 46.5181 81.6623 46.5181 80.4844C46.5181 79.1031 46.9846 78.0389 47.9114 77.2855C48.8381 76.5322 50.9009 75.8027 54.0878 75.1032C54.4824 75.0074 54.9369 74.9178 55.4392 74.84C56.043 74.7265 56.348 74.5949 56.348 74.4575L56.3839 72.8012V72.1853C56.3839 70.4872 56.1507 69.3034 55.6902 68.6397C55.2299 67.976 54.4586 67.6411 53.3763 67.6411C52.6887 67.6411 52.0607 67.7369 51.4987 67.9282C50.9426 68.1194 50.4165 68.4245 49.9262 68.8311C49.9382 68.9148 49.956 69.0345 49.98 69.1958C50.0398 69.7818 50.0638 70.1705 50.0638 70.3679C50.0638 71.0136 49.9142 71.5279 49.6214 71.9284C49.3225 72.323 48.9338 72.5204 48.4493 72.5204C48.1325 72.5204 47.8813 72.4008 47.696 72.1616C47.5107 71.9226 47.4149 71.5996 47.4149 71.1871C47.4149 70.045 48.0427 68.9927 49.2984 68.036C50.554 67.0794 52.001 66.601 53.6512 66.601C55.5884 66.601 56.9997 67.0555 57.8844 67.9644C58.7754 68.8791 59.2177 70.368 59.2177 72.4309V72.8733L59.2179 72.8728ZM69.5142 57.3806V80.6158C69.5142 81.7459 69.6636 82.4155 69.9685 82.6307C70.2736 82.8399 71.0747 82.9714 72.3843 83.0313V84.0357C71.1226 83.9639 70.16 83.9161 69.5023 83.8922C68.8386 83.8683 68.3064 83.8563 67.8938 83.8563C67.6009 83.8563 67.2062 83.8622 66.7041 83.8801C66.2018 83.8982 65.2391 83.952 63.81 84.0357V83.0313C65.2211 82.8998 66.0523 82.7263 66.3033 82.5051C66.5544 82.2838 66.68 81.6561 66.68 80.6158V61.1476C66.68 60.2028 66.5126 59.599 66.1838 59.3419C65.8549 59.0848 64.9879 58.9593 63.5947 58.9593L63.6127 57.9546C64.653 57.8949 65.6636 57.8231 66.6441 57.7274C67.6246 57.6378 68.5813 57.5182 69.5142 57.3806ZM77.9449 62.3673H79.0151L78.8716 67.6051H83.2185V68.5738H78.8716L78.6264 78.0867V78.9478C78.6264 80.3229 78.7938 81.2556 79.1347 81.7519C79.4755 82.2482 80.0557 82.4934 80.8867 82.4934C81.4727 82.4934 81.9689 82.344 82.3755 82.051C82.7881 81.7521 83.1289 81.2915 83.392 80.6638L84.1155 80.9568C83.8106 82.021 83.2545 82.8522 82.4413 83.4562C81.6282 84.06 80.6596 84.3588 79.5234 84.3588C78.1901 84.3588 77.2335 84.0002 76.6414 83.2886C76.0497 82.5771 75.7566 81.4051 75.7566 79.7728V79.2467L76.0374 68.5738H74.1421V67.8143C75.2423 67.3001 76.1093 66.5887 76.7432 65.668C77.383 64.7531 77.7776 63.653 77.945 62.3675L77.9449 62.3673ZM91.1469 57.3806V70.5887C91.9182 69.2731 92.8449 68.2807 93.9212 67.611C95.0034 66.9353 96.2052 66.6004 97.5387 66.6004C99.464 66.6004 100.839 67.0787 101.67 68.0415C102.501 68.9981 102.914 70.6603 102.914 73.0221V80.6158C102.914 81.7039 103.034 82.3498 103.273 82.5591C103.512 82.7683 104.11 82.9238 105.066 83.0314V84.0358C103.793 83.9521 102.926 83.8983 102.46 83.8803C101.993 83.8624 101.616 83.8564 101.341 83.8564C100.953 83.8564 100.451 83.8684 99.8346 83.8924C99.2187 83.9162 98.3398 83.964 97.2097 84.0358L97.2276 83.0314C98.6626 82.8938 99.5057 82.7084 99.7509 82.4873C99.996 82.2661 100.116 81.6442 100.116 80.6159V72.5977C100.116 70.8878 99.8706 69.674 99.3742 68.9625C98.8779 68.2509 98.0468 67.8921 96.8928 67.8921C95.4219 67.8921 94.0945 68.5019 92.9166 69.7278C91.7388 70.9535 91.1469 72.2929 91.1469 73.7399V80.8073C91.1469 81.776 91.2665 82.3619 91.5055 82.5652C91.7448 82.7745 92.3307 82.9239 93.2635 83.0317V84.0361C91.99 83.9524 91.1169 83.8986 90.6505 83.8805C90.1843 83.8626 89.8075 83.8567 89.5265 83.8567C89.1558 83.8567 88.6715 83.8687 88.0736 83.8926C87.4757 83.9165 86.6027 83.9642 85.4427 84.0361V83.0317C86.8538 82.9061 87.685 82.7267 87.936 82.5055C88.1871 82.2842 88.3127 81.6565 88.3127 80.6162V60.7891C88.3127 59.8564 88.1871 59.2763 87.936 59.0492C87.685 58.822 86.9493 58.6843 85.7297 58.6365L85.7118 57.6321C86.6744 57.6082 87.6013 57.5724 88.498 57.5305C89.3949 57.4887 90.2799 57.4408 91.1469 57.381V57.3806ZM138.167 61.4703L138.574 59.6646H139.435V59.7843C139.339 61.8231 139.291 63.318 139.291 64.2747C139.291 64.5437 139.303 65.1715 139.327 66.1522C139.339 66.7799 139.351 67.2882 139.363 67.6769H138.466C138.233 64.9983 137.372 62.8995 135.895 61.3808C134.412 59.8622 132.499 59.1027 130.149 59.1027C127.459 59.1027 125.39 60.1133 123.949 62.1341C122.508 64.1551 121.784 67.0491 121.784 70.8219C121.784 74.6486 122.586 77.6262 124.194 79.7428C125.796 81.8655 128.039 82.9238 130.909 82.9238C132.846 82.9238 134.49 82.4216 135.835 81.4111C137.187 80.4006 138.143 78.9536 138.717 77.0761H139.722C139.172 79.4259 138.066 81.2318 136.403 82.4814C134.735 83.731 132.613 84.3588 130.036 84.3588C126.412 84.3588 123.494 83.1631 121.276 80.7654C119.058 78.3739 117.946 75.2167 117.946 71.3064C117.946 67.3602 119.064 64.1433 121.306 61.668C123.548 59.1925 126.454 57.9549 130.03 57.9549C131.674 57.9549 133.186 58.2538 134.562 58.8458C135.937 59.4438 137.139 60.3167 138.167 61.4707L138.167 61.4703ZM148.009 66.6005V80.6158C148.009 81.7578 148.17 82.4394 148.493 82.6546C148.81 82.8698 149.641 82.9954 150.987 83.0313V84.0357C149.749 83.9639 148.786 83.9161 148.093 83.8922C147.405 83.8683 146.837 83.8563 146.394 83.8563C145.964 83.8563 145.402 83.8683 144.72 83.8922C144.039 83.9161 143.052 83.9639 141.767 84.0357V83.0313H141.802C144.051 82.8998 145.175 82.0985 145.175 80.6157V70.3673C145.175 69.3747 145.013 68.7648 144.696 68.5316C144.373 68.2985 143.399 68.1788 141.767 68.1788V67.1742C142.831 67.1264 143.883 67.0607 144.93 66.965C145.976 66.8754 147.004 66.7498 148.009 66.6002L148.009 66.6005ZM146.652 60.1071C147.154 60.1071 147.537 60.2386 147.812 60.5019C148.087 60.765 148.224 61.1355 148.224 61.6139C148.224 62.0804 148.003 62.5228 147.56 62.9473C147.118 63.3719 146.634 63.5871 146.107 63.5871C145.653 63.5871 145.294 63.4495 145.031 63.1746C144.768 62.8995 144.637 62.5288 144.637 62.0505C144.637 61.596 144.852 61.1537 145.282 60.735C145.713 60.3164 146.173 60.1071 146.652 60.1071ZM156.44 62.3673H157.51L157.366 67.6051H161.713V68.5738H157.366L157.121 78.0867V78.9478C157.121 80.3229 157.289 81.2556 157.629 81.7519C157.97 82.2482 158.55 82.4934 159.381 82.4934C159.967 82.4934 160.464 82.344 160.87 82.051C161.283 81.7521 161.624 81.2915 161.887 80.6638L162.61 80.9568C162.305 82.021 161.749 82.8522 160.936 83.4562C160.123 84.06 159.154 84.3588 158.018 84.3588C156.685 84.3588 155.728 84.0002 155.136 83.2886C154.544 82.5771 154.251 81.4051 154.251 79.7728V79.2467L154.532 68.5738H152.637V67.8143C153.737 67.3001 154.604 66.5887 155.238 65.668C155.878 64.7531 156.272 63.653 156.44 62.3675L156.44 62.3673ZM162.969 66.9235C163.925 66.9951 164.667 67.043 165.193 67.067C165.719 67.091 166.15 67.1029 166.491 67.1029C166.909 67.1029 167.411 67.091 167.985 67.067C168.565 67.043 169.319 66.9951 170.257 66.9235V67.9279H169.97C169.468 67.9279 169.068 68.0057 168.769 68.1672C168.476 68.3225 168.326 68.5259 168.326 68.7711C168.326 69.1298 168.428 69.5782 168.637 70.1164C168.685 70.242 168.721 70.3436 168.745 70.4153L172.476 79.958C172.817 78.9775 173.277 77.6501 173.863 75.9818C175.262 72.0116 175.962 69.7396 175.962 69.1535C175.962 68.771 175.776 68.4779 175.406 68.2865C175.029 68.0952 174.437 67.9756 173.636 67.9278V66.9234C174.383 66.995 174.975 67.0429 175.412 67.0669C175.848 67.0908 176.225 67.1028 176.542 67.1028C176.847 67.1028 177.211 67.0908 177.636 67.0669C178.066 67.0429 178.64 66.995 179.364 66.9234V67.9278C178.778 67.9518 178.324 68.1072 177.989 68.3943C177.654 68.6751 177.361 69.1835 177.104 69.907L171.585 85.6144C170.682 88.1674 169.875 89.8715 169.145 90.7205C168.422 91.5755 167.513 92.0001 166.413 92.0001C165.827 92.0001 165.355 91.8566 164.984 91.5696C164.619 91.2884 164.434 90.9298 164.434 90.4992C164.434 90.1225 164.565 89.8176 164.834 89.5845C165.103 89.3512 165.45 89.2376 165.869 89.2376C166.293 89.2376 166.73 89.387 167.196 89.6861C167.656 89.985 167.955 90.1346 168.093 90.1346C168.493 90.1346 168.93 89.6324 169.408 88.6218C169.887 87.6113 170.467 85.9671 171.142 83.689L165.701 70.4511C165.689 70.4152 165.665 70.3553 165.63 70.2716C165.074 68.9204 164.183 68.1371 162.969 67.9278V66.9234L162.969 66.9235Z" fill="#949392"/>
<path d="M107.462 3.09857C94.7715 3.09857 84.4471 13.4229 84.4471 26.113C84.4471 38.8038 94.7716 49.1277 107.462 49.1277C120.152 49.1277 130.476 38.8038 130.476 26.113C130.476 13.4229 120.152 3.09857 107.462 3.09857ZM107.462 51.2268C93.6142 51.2268 82.3483 39.9608 82.3483 26.113C82.3483 12.2657 93.6142 1 107.462 1C121.309 1 132.575 12.2657 132.575 26.113C132.575 39.9608 121.309 51.2268 107.462 51.2268Z" fill="#5C8C6C" stroke="white" stroke-width="0.755903" stroke-miterlimit="22.9256"/>
<path fill-rule="evenodd" clip-rule="evenodd" d="M115.517 31.1449L115.134 31.0794C115.187 31.025 115.188 31.05 115.332 31.0892C115.402 31.108 115.457 31.1295 115.518 31.1449H115.517ZM121.235 27.265C121.192 27.2018 121.207 27.1511 121.212 27.0697C121.218 26.9619 121.174 26.9759 121.147 26.8992C121.126 26.8424 121.064 26.5793 121.056 26.5214L121.123 26.5783C121.274 26.7694 121.216 26.7116 121.238 26.8575C121.257 26.9816 121.34 27.1572 121.235 27.2648V27.265ZM119.666 25.7352C119.753 25.7233 119.79 25.7428 119.834 25.689C119.862 25.6549 119.874 25.5826 119.948 25.6189C119.985 25.6371 120.002 25.717 120.033 25.7521C120.084 25.8095 120.105 25.7622 120.135 25.8468C120.165 25.9296 120.165 26.0877 120.176 26.15C120.197 26.2746 120.235 26.4211 120.222 26.5778C120.15 26.571 120.109 26.5619 120.062 26.5257C120.059 26.4521 120.096 26.4387 120.095 26.3856C120.093 26.3164 120.06 26.3458 120.083 26.2401C119.978 26.2301 120.06 26.2171 119.96 26.2551L119.543 26.3565C119.507 25.8411 119.571 25.9624 119.637 25.8853C119.672 25.8444 119.658 25.794 119.665 25.7351L119.666 25.7352ZM120.903 25.9753C120.947 25.9305 120.976 25.9014 121.044 25.8692C121.068 25.9891 121.06 26.1578 121.056 26.2899L120.962 26.3385L120.903 25.9753ZM120.666 25.6932L120.724 25.6649C120.715 25.719 120.722 25.7046 120.68 25.7374C120.681 25.7908 120.697 25.8704 120.719 25.9172C120.745 25.9722 120.776 25.9722 120.797 26.0208C120.822 26.0805 120.86 26.3977 120.861 26.474C120.604 26.4412 120.518 26.4028 120.537 26.6671C120.496 26.6769 120.474 26.693 120.434 26.691C120.339 26.6862 120.373 26.6724 120.359 26.653C120.318 26.6098 120.295 26.1668 120.286 26.0706C120.258 26.0138 120.25 25.9697 120.262 25.9154C120.306 25.9717 120.293 25.9958 120.306 26.0779C120.357 25.9818 120.343 25.9739 120.31 25.8773H120.378C120.32 25.7792 120.241 25.9006 120.199 25.5843C120.23 25.5991 120.313 25.6538 120.349 25.6828C120.411 25.7333 120.384 25.7736 120.428 25.8487L120.528 25.9842C120.531 25.9907 120.528 26.0756 120.61 26.123C120.624 26.0302 120.641 26.0215 120.571 25.9964L120.608 25.9696C120.638 25.9425 120.61 25.987 120.628 25.9427C120.58 25.8893 120.582 25.9247 120.575 25.8969C120.573 25.8914 120.568 25.8917 120.565 25.8888C120.621 25.8387 120.582 25.787 120.597 25.6969L120.666 25.6934V25.6932ZM120.084 25.6161L120.052 25.5621C120.099 25.5855 120.08 25.5349 120.084 25.6161ZM120.792 25.5349C120.713 25.2259 120.654 25.3095 120.874 25.1116C120.954 25.1358 121.033 25.1504 121.01 25.2606C120.977 25.4213 120.963 25.3995 120.855 25.3792C120.839 25.4218 120.818 25.4968 120.792 25.535V25.5349ZM120.717 25.1317L120.681 25.1535C120.647 25.1218 120.652 25.1307 120.646 25.0741L120.717 25.1317ZM120.741 25.0773C120.743 24.9816 120.739 24.9502 120.792 24.881C120.817 24.9247 120.813 24.9574 120.812 25.0169L120.741 25.0771V25.0773ZM119.933 24.6892C119.887 24.474 119.711 24.3271 119.906 24.2214C119.931 24.208 119.931 24.2128 119.957 24.1935C119.987 24.2241 119.966 24.2036 119.989 24.2407C120.003 24.2622 120.001 24.2598 120.015 24.2794C120.039 24.3115 120.05 24.3284 120.071 24.3539C120.069 24.3556 120.064 24.3563 120.062 24.3568L120.001 24.3703C120.032 24.4818 120.1 24.5194 120.041 24.6486C119.996 24.6653 120.039 24.6319 119.959 24.6727C119.956 24.6745 119.948 24.6843 119.946 24.6807C119.944 24.6769 119.938 24.6865 119.933 24.6892H119.933ZM119.773 23.9173C119.788 23.999 119.828 24.0601 119.855 24.128L119.761 24.1582C119.732 24.0678 119.693 24.0368 119.703 23.9371C119.718 23.7916 119.659 23.8411 119.659 23.7089C119.789 23.7312 119.752 23.7993 119.773 23.9172L119.773 23.9173ZM118.948 22.1362C119.074 22.2179 119.241 22.4776 119.253 22.4868C119.314 22.6697 119.367 22.8505 119.209 22.9676C119.079 23.0644 118.907 23.0886 118.712 23.0879L118.68 23.1745C118.692 23.1797 118.719 23.1939 118.728 23.1989C118.826 23.2306 119.12 24.0913 119.147 24.2484C119.038 24.2548 118.817 24.2484 118.723 24.212C118.696 23.9144 118.688 23.6636 118.622 23.3814C118.547 23.3923 118.593 23.3816 118.577 23.4039C118.513 23.3162 118.525 23.4027 118.548 23.2566C118.543 23.2612 118.534 23.2603 118.531 23.2706L118.506 23.2927C118.504 23.2941 118.501 23.2988 118.5 23.3002C118.499 23.3011 118.498 23.3042 118.497 23.3057C118.516 23.4435 118.572 23.6396 118.565 23.7761L118.446 23.7779C118.416 23.7387 118.438 23.7407 118.385 23.7176L118.338 23.7629C118.359 23.8293 118.349 23.7828 118.389 23.8422C118.45 23.9317 118.33 23.9483 118.591 23.9499L118.61 24.1994L118.114 24.0938L118.185 23.5421C118.181 23.5434 118.175 23.5421 118.173 23.5475C118.171 23.5528 118.163 23.5519 118.16 23.5528C118.065 23.589 118.098 23.5519 118.09 23.5354C118.005 23.5825 118.077 23.5165 118.041 23.5885C118.094 23.6082 118.063 23.6592 118.044 23.8009C118.033 23.8859 118.018 23.9665 118.009 24.0509L117.632 23.9244L117.585 23.968C117.516 23.9782 117.568 23.9507 117.55 23.9876L117.985 24.1741C117.964 24.3497 117.803 25.1341 117.743 25.2654C117.614 25.2254 117.489 25.1779 117.362 25.1311C117.243 25.0871 117.094 25.0111 116.99 24.9815C117.065 24.7381 117.297 24.3294 117.407 24.0642C117.439 23.9876 117.43 23.9636 117.5 23.9736C117.49 23.9247 117.497 23.9434 117.484 23.9121C117.483 23.913 117.481 23.9106 117.481 23.9117C117.481 23.9126 117.478 23.9115 117.478 23.9116L117.517 23.9448C117.51 23.8759 117.502 23.924 117.527 23.8902C117.547 23.8614 117.547 23.8717 117.582 23.863C117.52 23.7789 117.539 23.8143 117.473 23.7895C117.386 23.7562 117.461 23.7568 117.369 23.7321L117.396 23.7989C117.398 23.7982 117.391 23.8154 117.289 23.7625C117.242 23.7379 117.207 23.7195 117.16 23.6949C117.085 23.6547 116.972 23.6078 116.931 23.5478L117.238 23.2083C117.297 23.147 117.343 23.104 117.404 23.0456L117.576 22.8703C117.571 22.7921 117.569 22.8903 117.551 22.8298C117.524 22.7397 117.504 22.8806 117.559 22.7919C117.561 22.7878 117.579 22.7699 117.582 22.7656L117.518 22.7799C117.516 22.7795 117.514 22.7747 117.512 22.7724C117.536 22.7636 117.524 22.7699 117.544 22.7562C117.575 22.7351 117.558 22.7549 117.579 22.7238C117.544 22.6681 117.529 22.6703 117.479 22.6399C117.402 22.5933 117.257 22.4532 117.193 22.3888C117.244 22.3394 117.223 22.3964 117.238 22.3332C117.251 22.283 117.242 22.2885 117.226 22.2736C117.193 22.2423 117.166 22.2967 117.138 22.3206L117.109 22.2909C117.125 22.2464 117.109 22.2905 117.14 22.2595C117.176 22.224 117.14 22.3032 117.176 22.218L117.046 22.1908C117.059 22.1331 117.025 22.2121 117.102 22.135L117.128 22.1001C117.047 22.0799 117.117 22.0752 117.05 22.0343L116.981 22.0124C116.917 21.6174 117.345 21.5536 117.696 21.588C118.254 21.6424 118.52 21.8603 118.948 22.1368L118.948 22.1362ZM119.356 22.4319C119.392 22.4534 119.397 22.4704 119.423 22.4821C119.46 22.4989 119.453 22.481 119.497 22.5058L119.469 22.5417C119.453 22.5272 119.47 22.5339 119.426 22.51C119.414 22.5034 119.397 22.4996 119.391 22.4961C119.361 22.4785 119.353 22.5001 119.356 22.4319ZM119.559 22.6983C119.58 22.7293 119.594 22.7259 119.622 22.7569C119.636 22.7723 119.637 22.7798 119.649 22.7939C119.669 22.8161 119.661 22.8045 119.671 22.81C119.671 22.8511 119.684 22.8251 119.664 22.8448C119.521 22.7258 119.424 22.7281 119.422 22.6251C119.55 22.6746 119.486 22.6587 119.558 22.6984L119.559 22.6983ZM119.763 22.8251C119.73 22.7973 119.75 22.8214 119.729 22.7833C119.813 22.8182 119.817 22.8388 119.817 22.8388C119.818 22.8359 119.821 22.8456 119.824 22.8488L119.763 22.8251ZM119.824 22.8488C119.857 22.8577 119.828 22.8457 119.858 22.8627C119.86 22.8637 119.864 22.8733 119.866 22.8705C119.867 22.8676 119.87 22.8765 119.873 22.8794C119.844 22.8727 119.864 22.8804 119.84 22.8662C119.838 22.8652 119.833 22.863 119.831 22.8582C119.83 22.8533 119.826 22.8517 119.824 22.8488ZM119.873 22.8794C119.876 22.8807 119.939 22.9102 119.9 22.9102C119.85 22.8894 119.886 22.9091 119.873 22.8794ZM119.802 23.0588C119.808 23.1132 119.837 23.1527 119.862 23.2076C119.849 23.233 119.888 23.2893 119.751 23.1512L119.514 22.9464C119.461 22.9015 119.414 22.8959 119.42 22.8153C119.467 22.8342 119.469 22.8504 119.512 22.8828C119.579 22.9323 119.544 22.928 119.589 22.9694C119.613 22.9912 119.636 22.9782 119.688 22.9995C119.759 23.028 119.735 23.0359 119.802 23.059L119.802 23.0588ZM119.833 23.3575C119.841 23.3829 119.828 23.3588 119.853 23.3937C119.919 23.4853 119.963 23.5813 120.004 23.6838C119.918 23.6846 119.841 23.6091 119.766 23.5417L119.867 23.5267C119.871 23.3403 119.783 23.381 119.61 23.3452L119.369 23.091C119.32 23.0401 119.308 23.0499 119.329 22.9866C119.393 22.9599 119.41 22.9969 119.466 23.0436C119.511 23.0823 119.54 23.104 119.591 23.1478C119.673 23.2187 119.775 23.3321 119.833 23.3574L119.833 23.3575ZM119.487 23.3733C119.481 23.3804 119.435 23.4483 119.433 23.4531C119.407 23.5038 119.418 23.4791 119.412 23.5516L119.383 23.5349C119.328 23.3831 119.204 23.2714 119.139 23.142L119.219 23.0961L119.487 23.3732V23.3733ZM119.34 23.6368C119.354 23.7416 119.461 23.7814 119.44 23.9018C119.42 24.0161 119.374 24.1099 119.409 24.2403L119.269 24.2468C119.208 24.1126 119.142 23.8463 119.089 23.6988C119.028 23.527 118.943 23.3621 118.883 23.1972L119.028 23.1715C119.055 23.231 119.132 23.3299 119.177 23.3983L119.34 23.6367L119.34 23.6368ZM119.459 24.3463L119.464 24.4092L119.547 24.4492C119.586 24.3863 119.55 24.3603 119.613 24.3164C119.647 24.3338 119.721 24.4578 119.741 24.504C119.765 24.5591 119.748 24.5952 119.783 24.6384C119.808 24.6694 119.807 24.6378 119.822 24.702L119.713 24.6983C119.695 24.6465 119.718 24.5561 119.646 24.4687C119.588 24.5836 119.63 24.5387 119.667 24.6448C119.687 24.704 119.682 24.8052 119.648 24.8462C119.612 24.8909 119.625 24.8246 119.588 24.9194C119.576 24.9502 119.576 24.9746 119.56 25.006C119.506 25.1161 119.506 25.0098 119.471 25.1602C119.442 25.1245 119.462 25.1994 119.447 25.1239C119.476 24.7799 119.465 25.1412 119.384 24.7471C119.359 24.6276 119.312 24.4697 119.299 24.3564L119.459 24.3464L119.459 24.3463ZM119.344 25.1443L119.36 25.2676L119.237 25.2859C119.245 25.3634 119.253 25.342 119.315 25.3733C119.423 25.4279 119.336 25.3993 119.385 25.4514L119.392 25.5394L118.702 25.4977C118.721 25.0984 118.736 24.7302 118.726 24.3338L119.187 24.3706C119.198 24.4241 119.219 24.4636 119.204 24.502C119.045 24.4971 119.275 24.4373 119.105 24.456C119.069 24.5042 119.082 24.5624 119.095 24.6256C119.124 24.7555 119.123 24.6774 119.191 24.7269C119.223 24.7497 119.238 24.8246 119.244 24.8704C119.257 24.969 119.207 24.9245 119.176 24.9928C119.228 25.0236 119.226 24.9661 119.241 25.032C119.25 25.0674 119.22 25.0974 119.199 25.1377C119.271 25.1359 119.277 25.1514 119.313 25.1044C119.342 25.13 119.329 25.1011 119.345 25.1443H119.344ZM119.41 25.6467L119.403 25.734C119.196 25.708 119.103 25.6776 119.012 25.7488C119.009 25.8671 119.032 25.8752 118.998 26.0175C118.962 26.1689 119.028 26.0924 119.004 26.2729C119.153 26.2609 119.094 26.2496 119.208 26.3777C119.28 26.328 119.208 26.3384 119.318 26.3288C119.381 26.3231 119.376 26.339 119.431 26.3092L119.43 26.4576C119.378 26.4577 119.352 26.475 119.29 26.4622C119.136 26.4308 119.212 26.3595 119.112 26.5399C119.04 26.6699 119.01 26.5525 118.93 26.7181C118.906 26.7677 118.888 26.7928 118.886 26.8448L118.546 26.8075C118.546 26.7403 118.673 25.8797 118.691 25.5979C118.933 25.6272 119.161 25.6506 119.41 25.6469L119.41 25.6467ZM118.827 26.9492C118.803 26.9627 118.781 26.9905 118.748 27.0102C118.679 27.0515 118.624 27.0595 118.546 27.1359L118.462 27.2309L118.491 27.0892C118.5 27.0222 118.503 26.9703 118.532 26.9183L118.827 26.9492H118.827ZM118.386 27.0565C118.326 27.2398 118.351 27.3755 118.246 27.5402C118.189 27.6284 118.253 27.7033 118.208 27.8286C118.081 28.1814 118.067 27.9895 117.885 28.0258C117.835 27.9938 117.546 27.9378 117.472 27.9204C117.333 27.8875 117.207 27.8468 117.074 27.8131C117.119 27.6417 117.212 27.4313 117.271 27.2531C117.314 27.1234 117.413 26.7705 117.467 26.6791C117.604 26.7013 117.788 26.765 117.936 26.8009C118.021 26.8213 118.365 26.8733 118.41 26.9092L118.386 27.0565H118.386ZM117.901 28.1259C117.926 28.1326 117.959 28.1356 117.986 28.142C118.122 28.1757 118.018 28.2157 118.03 28.2953C118.038 28.3501 118.063 28.3198 118.043 28.4005C118.025 28.4737 117.976 28.5522 117.98 28.6251L117.942 28.6942C117.934 28.7131 117.924 28.7418 117.915 28.7658C117.881 28.859 117.78 29.1433 117.729 29.1964C117.341 29.1497 116.974 29.0317 116.613 28.9455L117.042 27.9176C117.275 27.9609 117.538 28.0664 117.902 28.1259H117.901ZM118.074 28.6291L118.123 28.4983C118.25 28.6152 118.148 28.6506 118.235 28.7453C118.264 28.7772 118.297 28.7961 118.327 28.8342C118.36 28.877 118.352 28.902 118.399 28.9425C118.526 29.0542 118.543 28.9817 118.659 28.9809C118.739 28.9803 118.723 28.9817 118.807 28.9672C118.879 28.9544 118.881 28.9797 118.925 28.9865C118.958 29.0027 118.989 28.9348 118.905 29.1325C118.881 29.1878 118.865 29.2294 118.84 29.2796C118.488 29.2889 118.195 29.2465 117.855 29.2199C117.916 29.0213 118.023 28.839 118.074 28.6289L118.074 28.6291ZM119.072 28.9894C119.115 28.9268 119.103 28.8507 119.4 28.8528L119.466 28.9858C119.572 28.9691 119.56 28.9195 119.653 28.9652C119.67 29.0284 119.599 29.1741 119.541 29.2138L118.971 29.2803L119.072 28.9895L119.072 28.9894ZM119.45 29.3396C119.491 29.3497 119.479 29.3758 119.491 29.4403C119.497 29.4689 119.52 29.5474 119.522 29.57C119.526 29.6137 119.43 29.7875 119.398 29.839C119.31 29.9793 119.249 30.0659 119.124 30.1124C118.888 30.1485 118.698 30.1957 118.444 30.2059C118.519 30.0722 118.614 29.9489 118.696 29.8082C118.774 29.6733 118.835 29.5267 118.914 29.3879L119.439 29.3373L119.45 29.3396ZM119.003 30.2855C118.97 30.2957 118.948 30.3531 118.847 30.4425L118.816 30.4738C118.815 30.4757 118.811 30.4798 118.81 30.4815C118.809 30.483 118.805 30.4878 118.804 30.4891C118.803 30.4904 118.8 30.4939 118.798 30.4967C118.717 30.5321 118.537 30.6943 118.42 30.7522C118.325 30.799 117.985 30.8431 117.863 30.8494L118.193 30.5243C118.513 30.202 118.141 30.3908 118.821 30.2841L118.959 30.2626C119.02 30.2723 118.969 30.2395 119.003 30.2856L119.003 30.2855ZM118.911 30.6641C119.236 30.4718 119.523 30.2851 119.773 30.0572L119.967 29.8741C120.13 29.7126 120.176 29.677 120.32 29.5068C121.437 28.1876 121.81 26.4158 121.301 24.7105C121.128 24.1285 120.9 23.709 120.58 23.2378C120.506 23.1296 120.291 22.8749 120.275 22.8255L120.018 22.5709C119.636 22.1387 119.024 21.7694 118.498 21.5203C118.405 21.4767 118.301 21.4346 118.196 21.3958C118 21.3226 117.744 21.2331 117.529 21.1981L117.526 21.3076C117.547 21.3499 117.536 21.2975 117.561 21.3427L117.465 21.3695L117.511 21.3931C117.536 21.4021 117.534 21.3958 117.561 21.4092C117.6 21.4288 117.615 21.4492 117.632 21.473C117.445 21.4652 117.515 21.4438 117.391 21.4079C117.391 21.4076 117.398 21.3775 117.407 21.3685C117.361 21.3502 117.396 21.3301 117.356 21.3105C117.311 21.2891 117.298 21.3109 117.245 21.3543L117.23 21.367C117.207 21.3897 117.216 21.3736 117.203 21.4011C117.25 21.4597 117.251 21.428 117.319 21.4917C117.181 21.5141 117.187 21.4563 117.059 21.4236C117.032 21.4328 117.026 21.4138 117.014 21.4798C117.008 21.5143 117.015 21.4961 117.017 21.5014C117.029 21.5138 117.028 21.5138 117.048 21.5274C117.085 21.5525 117.07 21.5241 117.103 21.5696C117.024 21.6039 117.011 21.571 116.923 21.5565C116.875 21.5468 116.905 21.5629 116.891 21.5227L116.865 21.6042L116.915 21.6464C116.961 21.6945 116.94 21.6416 116.951 21.6996C116.897 21.7354 116.885 21.7116 116.758 21.6876C116.644 21.6662 116.603 21.6787 116.574 21.6295C116.529 21.6337 116.569 21.6103 116.51 21.6145L116.481 21.6209C116.468 21.6967 116.497 21.6939 116.562 21.7355L116.497 21.7356C116.497 21.8671 116.491 21.7503 116.528 21.8011C116.549 21.7638 116.475 21.7514 116.623 21.7708C116.677 21.7779 116.849 21.809 116.883 21.8339L116.875 21.9014C116.812 21.898 116.748 21.8813 116.695 21.8834C116.657 21.8849 116.651 21.8969 116.61 21.8936C116.531 21.8876 116.566 21.9031 116.548 21.8668L116.472 21.8758L116.557 22.0015C116.519 22.0501 116.534 22.0199 116.48 22.0457C116.448 22.0614 116.44 22.0764 116.416 22.1014L116.47 22.1702L116.391 22.1581C116.396 22.2621 116.387 22.1418 116.389 22.221C116.389 22.2582 116.381 22.2169 116.391 22.2505C116.41 22.3108 116.384 22.2677 116.421 22.3086C116.421 22.3086 116.426 22.2451 116.54 22.2704C116.617 22.2873 116.551 22.3045 116.632 22.2663C116.705 22.2321 116.819 22.2201 116.906 22.2293L116.941 22.2131L117.01 22.2825C116.988 22.3316 117.034 22.3296 116.968 22.3142L116.913 22.3486C116.902 22.3535 116.854 22.3737 116.851 22.3743L116.682 22.3795C116.67 22.4198 116.665 22.4339 116.647 22.4619C116.67 22.4685 116.727 22.4721 116.727 22.4721C116.783 22.4927 116.7 22.4812 116.78 22.5228C116.83 22.5294 116.803 22.5124 116.825 22.5385L116.837 22.5884C116.902 22.6089 116.902 22.6468 116.973 22.6809C116.97 22.6842 116.966 22.6884 116.964 22.6902L116.937 22.7156C116.846 22.7883 116.381 23.0651 116.349 23.1195C116.378 23.1349 116.41 23.1375 116.449 23.113C116.484 23.0912 116.467 23.133 116.481 23.0783C116.49 23.1141 116.48 23.1238 116.557 23.1335C116.572 23.0876 116.548 23.106 116.601 23.0669C116.626 23.0484 116.64 23.0455 116.678 23.0417C116.692 23.0935 116.689 23.1546 116.712 23.2068C116.727 23.2397 116.762 23.3052 116.778 23.3348C116.93 23.3454 116.842 23.2951 116.954 23.2411C116.943 23.1723 116.93 23.2107 116.934 23.1635C116.934 23.1609 117.017 22.9184 117.021 23.2092L117.081 23.2257C117.039 23.2829 117.008 23.3021 116.969 23.3538C116.935 23.398 116.877 23.4676 116.841 23.4951C116.783 23.468 116.76 23.4469 116.707 23.4091C116.653 23.371 116.612 23.3641 116.604 23.3038C116.53 23.3177 116.595 23.2732 116.558 23.3243C116.515 23.3855 116.559 23.3443 116.563 23.3485C116.551 23.3443 116.558 23.3909 116.538 23.2829L116.495 23.3472C116.494 23.3481 116.49 23.3506 116.489 23.3516C116.488 23.3527 116.484 23.3559 116.483 23.357L116.456 23.4033C116.504 23.398 116.525 23.4094 116.556 23.43C116.568 23.4382 116.57 23.438 116.583 23.4513C116.607 23.4759 116.597 23.4672 116.606 23.4889C116.626 23.5276 116.542 23.5204 116.661 23.5204L116.661 23.5039C116.711 23.4706 116.671 23.502 116.674 23.5358C116.679 23.5928 116.674 23.5581 116.693 23.5695L116.761 23.5669C116.749 23.6224 116.716 23.6563 116.686 23.7051L116.726 23.7177C116.7 23.8161 116.714 23.7561 116.737 23.7878C116.741 23.7853 116.746 23.7758 116.748 23.779C116.75 23.782 116.756 23.7722 116.758 23.77L116.874 23.65C117.027 23.7289 117.194 23.8472 117.365 23.9107L116.902 24.926C116.786 24.902 116.246 24.6002 116.189 24.5359C116.263 24.4274 116.355 24.3239 116.422 24.2078C116.343 24.1994 116.393 24.1824 116.349 24.2248C116.362 24.1988 116.366 24.2433 116.39 24.1674C116.376 24.1609 116.361 24.1396 116.349 24.118C116.321 24.0686 116.346 24.1167 116.34 24.0923L116.336 24.0697C116.335 24.0685 116.335 24.0634 116.333 24.0609C116.292 24.0585 116.293 24.048 116.255 24.0678L116.289 24.1217C116.291 24.1248 116.295 24.1283 116.297 24.1311C116.299 24.1341 116.303 24.1379 116.305 24.1404L116.323 24.159C116.297 24.2054 116.177 24.4206 116.111 24.3851C116.061 24.3578 116.109 24.3926 116.084 24.3437L116.073 24.3186C116.055 24.285 116.084 24.3145 116.05 24.2857C116.005 24.4124 116.087 24.4018 116.088 24.402L116.137 24.4211L116.109 24.4803C116.114 24.4952 116.098 24.4855 116.087 24.5439L116.058 24.5238C116.033 24.5043 116.045 24.5557 116.038 24.503C115.981 24.535 116.017 24.4952 115.997 24.5552C116.025 24.5724 116.01 24.5712 116.02 24.5882C115.974 24.6287 115.894 24.7615 115.851 24.8236L115.35 25.5751C115.211 25.5115 114.648 25.0944 114.585 25.0107C114.651 24.9246 114.805 24.7545 114.824 24.7057C114.744 24.7006 114.788 24.6991 114.744 24.72L114.759 24.6973C114.758 24.695 114.757 24.689 114.757 24.6867L114.75 24.6615L114.614 24.7984C114.576 24.8429 114.531 24.8957 114.495 24.9388C114.396 24.8595 114.329 24.7989 114.242 24.6996C114.27 24.6544 114.24 24.6876 114.28 24.6582L114.249 24.6398C114.164 24.6283 114.199 24.7044 114.199 24.7129C114.202 24.7478 114.273 24.7091 114.188 24.7323L114.112 24.8077C114.093 24.8555 114.085 24.9129 114.056 24.9411C114.095 24.8575 114.059 24.914 114.029 24.8317C113.989 24.8785 113.928 25.02 113.938 25.0792C114.068 25.0982 114.137 24.9138 114.17 24.8094C114.224 24.8362 114.369 24.9772 114.418 25.0271C114.391 25.0783 114.355 25.1171 114.32 25.1601C114.246 25.2501 114.049 25.4972 114.013 25.5706C113.923 25.4822 113.9 25.1983 113.759 25.1282C113.699 25.0986 113.676 25.0676 113.603 25.0928C113.603 25.0928 113.737 25.1789 113.793 25.2925L113.865 25.4155C113.899 25.4937 113.834 25.5046 113.913 25.5621L113.866 25.5939C113.862 25.5968 113.858 25.6002 113.855 25.6027C113.851 25.6054 113.847 25.6098 113.844 25.6121C113.841 25.6142 113.836 25.6179 113.834 25.6215L113.941 25.6472C113.92 25.6921 113.748 25.945 113.712 25.978C113.664 25.9545 113.333 25.6423 113.309 25.5959C113.276 25.534 113.314 25.5476 113.263 25.4773C113.209 25.4035 113.145 25.3849 113.105 25.3058L113.23 25.1719C113.259 25.1597 113.254 25.1808 113.277 25.1812C113.323 25.1165 113.37 25.0795 113.456 25.0492C113.449 24.9237 113.435 24.9459 113.354 24.8951C113.408 24.7762 113.63 24.58 113.731 24.4736C113.768 24.4354 113.762 24.4449 113.783 24.3989C113.754 24.3728 113.755 24.351 113.72 24.338C113.671 24.3628 113.673 24.3677 113.635 24.4096C113.608 24.4395 113.593 24.4578 113.566 24.4879C113.483 24.5813 113.189 24.8797 113.14 24.9768C113.137 24.9738 113.135 24.9639 113.134 24.9665C113.119 25.0036 113.165 24.9222 112.997 24.8677L112.991 24.9126L112.927 24.8957C112.916 24.915 112.918 24.8946 112.911 24.9294C112.908 24.9431 112.91 24.9565 112.91 24.9619L112.87 24.96L112.869 25.0705C112.868 25.0692 112.843 25.0386 112.838 25.0321C112.74 24.9019 112.585 24.6412 112.527 24.5031C112.554 24.445 112.685 24.2887 112.737 24.265L112.744 24.2738C112.748 24.2721 112.782 24.2685 112.795 24.2573L112.745 24.1866C112.72 24.149 112.719 24.1794 112.721 24.1252C112.642 24.1668 112.54 24.3322 112.465 24.3758C112.419 24.1839 112.258 23.8534 112.361 23.7248L112.648 23.4386C112.703 23.3729 112.737 23.3621 112.796 23.3081C112.902 23.2119 113.012 23.1387 113.111 23.0494C113.146 23.0661 113.12 23.039 113.132 23.0864L113.168 23.1125C113.17 23.1136 113.175 23.1157 113.177 23.1169C113.223 23.1403 113.232 23.133 113.266 23.1249C113.27 23.1239 113.278 23.1228 113.282 23.1193C113.242 23.0951 113.254 23.1399 113.236 23.0461C113.232 23.0253 113.231 22.9795 113.23 22.9571C113.315 22.9244 113.454 22.8018 113.531 22.7907L113.565 22.718C113.563 22.7158 113.542 22.6984 113.532 22.6969C113.465 22.6871 113.497 22.6979 113.483 22.7015C113.514 22.7015 113.491 22.7068 113.493 22.6827C113.385 22.724 113.318 22.7956 113.224 22.8328C113.246 22.4033 113.297 22.391 113.612 22.2404C113.792 22.1543 114.096 22.0027 114.297 21.9645L114.264 22.163C114.344 22.1876 114.326 22.2424 114.326 22.2435L114.351 22.341C114.366 22.2424 114.348 22.3565 114.389 22.2785C114.434 22.1948 114.407 22.2614 114.4 22.2365C114.356 22.2143 114.362 22.2414 114.37 22.1487C114.371 22.133 114.383 22.0828 114.388 22.0654C114.431 21.8897 114.416 21.9114 114.751 21.84C114.88 21.8125 115.342 21.7002 115.43 21.7559C115.485 21.7696 115.412 21.772 115.468 21.762L115.49 21.7001C115.481 21.6337 115.422 21.7355 115.526 21.6512L115.563 21.6184C115.2 21.6378 114.852 21.6977 114.517 21.7803C114.552 21.7103 114.633 21.6238 114.697 21.5724C114.833 21.4617 115.534 21.4617 115.713 21.4613L115.661 21.5549C115.719 21.5556 115.731 21.5681 115.78 21.5416C115.782 21.5402 115.786 21.537 115.789 21.5353C115.831 21.5091 115.769 21.5082 115.844 21.5119C115.862 21.4641 115.833 21.4967 115.875 21.4689C115.961 21.4703 115.891 21.4624 115.92 21.498L115.973 21.5067L115.955 21.3837C115.948 21.3443 115.94 21.3577 115.957 21.293C115.886 21.2853 115.884 21.2672 115.817 21.2827L115.85 21.3492C115.84 21.3515 115.07 21.3681 115.061 21.3665C115.33 21.2715 115.503 21.2631 115.809 21.2605C115.78 21.2246 115.706 21.2296 115.701 21.2292C115.615 21.2239 115.719 21.2549 115.67 21.2272C115.761 21.2075 115.705 21.2031 115.732 21.1591C115.734 21.1561 115.737 21.1523 115.739 21.1493L115.777 21.1127L115.711 21.1071C113.65 21.3886 112.109 22.7907 111.526 24.4613C110.949 26.1134 111.217 27.8769 112.245 29.2627L112.565 29.6468C112.656 29.7518 112.821 29.9512 112.938 30.0021C112.94 29.9992 112.94 29.9894 112.94 29.9915L112.931 29.9449C112.931 29.9433 112.929 29.9392 112.929 29.9378L112.928 29.9247C112.93 29.8851 112.96 29.8818 112.921 29.8004L112.902 29.7608C112.905 29.7575 112.921 29.7912 112.925 29.7119C112.93 29.5738 112.926 29.6643 112.898 29.636V29.713C112.814 29.6747 112.812 29.6341 112.764 29.4643C112.736 29.3649 112.713 29.2419 112.703 29.138C112.779 29.1684 112.781 29.208 112.856 29.2343L112.905 29.1577C112.908 29.1516 112.909 29.1476 112.912 29.1417L112.901 29.0791L112.87 29.1124C112.868 29.1143 112.864 29.1185 112.861 29.1216C112.718 28.9653 112.629 29.0799 112.73 28.4655C112.742 28.3976 112.741 28.2618 112.806 28.2348C112.778 28.1922 112.79 28.1684 112.716 28.1277C112.714 28.1265 112.709 28.125 112.706 28.1229L112.735 28.0193C112.66 28.0378 112.709 28.0314 112.692 28.0093C112.64 27.9504 112.583 27.9242 112.532 27.8631C112.423 27.7338 112.161 27.5 112.082 27.3782C112.042 27.3163 112.074 27.2709 112.108 27.1388C112.183 26.8426 112.313 26.5976 112.351 26.4449C112.421 26.4855 112.423 26.5067 112.462 26.557C112.498 26.6044 112.528 26.6202 112.567 26.6641C112.635 26.7396 112.694 26.8361 112.787 26.8802C112.81 26.8493 112.794 26.8726 112.814 26.8453C112.832 26.8215 112.832 26.8286 112.838 26.8076C112.792 26.728 112.691 26.6491 112.627 26.5715C112.563 26.493 112.466 26.4087 112.416 26.321C112.538 26.0251 112.914 25.4693 112.936 25.4122L113.022 25.5538C113.039 25.6427 113.002 25.8102 112.969 25.8787C113.021 25.9789 112.958 25.8506 113.004 25.9173C113.006 25.9199 113.009 25.9237 113.011 25.9266C113.044 25.9856 113.008 26.0276 113.036 26.1138C113.068 26.211 113.093 26.1815 113.12 26.3395C113.191 26.3138 113.119 26.2728 113.256 26.2758L113.308 26.3574L113.317 26.3537L113.3 26.2422L113.137 26.1777C113.118 26.0858 113.083 25.9697 113.123 25.8955C113.167 25.8165 113.215 25.7639 113.275 25.7166L113.644 26.0752C113.63 26.1277 113.616 26.1226 113.595 26.1824C113.677 26.1956 113.659 26.1606 113.688 26.0916C113.731 26.0862 113.686 26.0548 113.702 26.1015C113.74 26.206 113.663 26.0442 113.697 26.1537L113.706 26.1719C113.763 26.1492 113.717 26.147 113.774 26.1769L114.623 26.8123L114.485 27.0776C114.442 27.1606 114.464 27.1466 114.41 27.127C114.385 27.1627 114.377 27.2121 114.414 27.2561L114.494 27.3199C114.509 27.2389 114.677 26.9236 114.728 26.8695C114.966 27.0032 115.502 27.3305 115.747 27.4129L115.283 28.4291L115.138 28.3711C115.149 28.4861 115.109 28.4307 115.183 28.4504C115.164 28.5496 115.218 28.3516 115.157 28.4817L115.151 28.4984C115.15 28.5356 115.21 28.5552 115.246 28.5867C115.303 28.6371 115.267 28.6233 115.318 28.64L115.329 28.5774C115.414 28.6001 115.516 28.6546 115.602 28.6906C115.697 28.7303 115.787 28.7666 115.882 28.8035C116.049 28.8678 116.3 28.972 116.469 29.0047C116.443 29.1064 116.317 29.3398 116.263 29.4447C116.198 29.5718 116.088 29.7482 116.047 29.8605C115.814 29.8083 115.581 29.6823 115.375 29.6346C115.366 29.7186 115.399 29.6763 115.352 29.7223C115.419 29.7889 115.855 29.9311 115.978 29.9539C115.922 30.0935 115.665 30.4619 115.58 30.5352C115.433 30.5056 115.227 30.4209 115.087 30.3682C114.945 30.3142 114.735 30.208 114.607 30.1756L114.725 29.8808C114.68 29.8538 114.746 29.8629 114.68 29.8663C114.66 29.8673 114.622 29.9137 114.663 29.8755C114.573 29.8624 114.688 29.8949 114.647 29.8543C114.627 29.8349 114.684 29.8445 114.581 29.81C114.584 29.8176 114.588 29.8203 114.589 29.8334L114.607 29.8816L114.506 30.1192L114.283 30.0181C114.315 30.0287 114.356 29.9717 114.37 29.8919L114.281 29.9319C114.149 30.0181 114.223 29.9836 114.217 29.997L114.205 30.0302C114.207 30.126 114.237 30.0296 114.203 30.0825C114.249 30.1336 114.39 30.1906 114.453 30.2116L114.291 30.5811C114.128 30.5359 113.677 30.2682 113.554 30.1856C113.529 29.9498 113.53 30.0272 113.598 30.0215L113.564 30.0055C113.479 29.9844 113.522 30.0238 113.444 29.9824C113.441 29.9805 113.436 29.9755 113.43 29.9737L113.433 30.1075C113.373 30.0771 113.371 30.0618 113.307 30.0426L113.322 30.1041C113.305 30.0697 113.285 30.0627 113.251 30.0578C113.221 30.0534 113.228 30.0683 113.199 30.0563C113.136 30.0301 113.224 30.0393 113.107 30.023C113.077 30.1391 113.152 30.056 113.073 30.0871C113.071 30.0878 113.066 30.0891 113.064 30.0896L113.044 30.096C113.172 30.2963 113.949 30.7366 114.221 30.858C115.74 31.5379 117.529 31.4791 118.911 30.6635L118.911 30.6641ZM116.693 31.1945L116.271 31.1695C116.337 31.1155 116.43 31.0778 116.505 31.0316C116.582 30.9841 116.633 30.9051 116.747 30.919C116.992 30.9491 117.2 30.9592 117.447 30.9756C117.383 31.0379 117.224 31.0921 117.126 31.1284C116.961 31.1904 116.883 31.1943 116.693 31.1943V31.1945ZM117.472 31.095C117.665 31.0374 117.457 30.9775 117.965 30.9524C117.91 30.998 117.806 31.0192 117.726 31.0398C117.66 31.0567 117.536 31.0942 117.472 31.095ZM115.311 30.9778C115.348 30.9167 115.538 30.7881 115.605 30.6722C115.654 30.6781 116.511 30.891 116.512 30.8916C116.442 30.9651 116.096 31.1484 115.969 31.1278C115.738 31.0905 115.526 31.0167 115.311 30.9778H115.311ZM114.324 30.7632C114.366 30.7233 114.313 30.7236 114.482 30.7933C114.612 30.8471 114.95 30.962 115.006 31.0049C114.913 31.0282 114.746 30.954 114.652 30.9186L114.393 30.8171C114.381 30.8122 114.358 30.8033 114.349 30.7965C114.299 30.76 114.348 30.7927 114.324 30.7633V30.7632ZM114.394 30.6295C114.419 30.5515 114.518 30.3165 114.564 30.2721C114.838 30.3683 115.206 30.5668 115.5 30.6278C115.474 30.6797 115.494 30.6447 115.454 30.6845C115.194 30.9404 115.223 30.9518 115.006 30.8756C114.859 30.8241 114.494 30.7039 114.394 30.6295ZM113.6 30.3518L114.092 30.6106C114.122 30.6256 114.148 30.6364 114.182 30.6524C114.251 30.686 114.238 30.6633 114.228 30.7173C114.215 30.7216 114.224 30.7276 114.192 30.7226C114.137 30.7138 113.799 30.5142 113.734 30.4769C113.668 30.4392 113.626 30.424 113.6 30.3518H113.6ZM117.545 30.8639L116.81 30.8252C116.822 30.7807 116.961 30.6674 117.048 30.5586C117.125 30.4634 117.224 30.3779 117.277 30.2647C117.598 30.2917 117.877 30.3132 118.206 30.3289C118.186 30.3954 117.919 30.6342 117.848 30.703C117.819 30.7304 117.797 30.744 117.766 30.7691C117.692 30.8299 117.671 30.8638 117.545 30.8639ZM115.702 30.5828L116.091 29.9964C116.257 30.0409 116.428 30.0901 116.603 30.1309C116.728 30.1602 117.07 30.2068 117.155 30.2527C117.099 30.3548 116.87 30.6009 116.769 30.6889C116.712 30.7387 116.69 30.7938 116.602 30.7865C116.314 30.7629 115.979 30.6319 115.702 30.5828H115.702ZM113.305 30.171C113.365 30.1877 113.435 30.2305 113.459 30.2865L113.318 30.1897C113.316 30.1875 113.312 30.1821 113.311 30.1805C113.31 30.1787 113.307 30.1741 113.305 30.171ZM113.305 30.171C113.242 30.1483 113.266 30.1606 113.232 30.1176C113.263 30.1318 113.242 30.1142 113.272 30.135C113.322 30.1704 113.288 30.1448 113.305 30.171ZM117.37 30.1638L117.712 29.5518C117.751 29.4723 117.776 29.3958 117.823 29.3293C118.138 29.3353 118.445 29.3997 118.786 29.393C118.788 29.5095 118.443 30.0282 118.377 30.1182C118.318 30.1983 118.328 30.2188 118.201 30.2178C118.104 30.2169 118.007 30.2159 117.91 30.2117C117.725 30.2037 117.553 30.1833 117.37 30.1638ZM117.234 30.1404C117.037 30.121 116.293 29.9663 116.153 29.8925C116.178 29.8078 116.319 29.5824 116.373 29.474C116.442 29.3345 116.51 29.1758 116.58 29.0456C116.754 29.0901 116.934 29.1439 117.118 29.1881C117.302 29.2322 117.524 29.261 117.701 29.3106C117.604 29.545 117.375 29.9762 117.234 30.1404H117.234ZM112.037 28.5054L112.451 28.9099C112.62 29.0978 112.548 28.8739 112.66 29.5026C112.534 29.4062 112.374 29.2269 112.264 29.0964C112.182 28.9979 112.053 28.6767 112.037 28.5054ZM112.579 28.8715C112.532 28.8366 112.495 28.8049 112.449 28.764C112.331 28.6578 112.195 28.4914 112.083 28.3772C111.943 28.2343 111.974 27.9792 111.999 27.7203C112.005 27.6548 112.005 27.5488 112.046 27.4981C112.122 27.6138 112.579 28.077 112.68 28.1391C112.67 28.2455 112.634 28.3719 112.617 28.4852C112.597 28.6151 112.596 28.7437 112.579 28.8715H112.579ZM111.714 28.0871L111.86 28.2725C111.899 28.3322 111.918 28.4498 111.921 28.5426C111.841 28.3841 111.783 28.2597 111.714 28.0871ZM116.513 28.907C116.17 28.8281 115.7 28.6181 115.387 28.4805C115.41 28.3934 115.823 27.5103 115.858 27.4735C116.206 27.6008 116.551 27.7732 116.936 27.8808C116.912 27.9904 116.566 28.838 116.513 28.907ZM111.541 26.8022C111.576 26.8271 111.672 27.005 111.709 27.0638C111.895 27.3562 111.952 27.3059 111.922 27.465C111.91 27.5325 111.902 27.5948 111.894 27.6642C111.876 27.8173 111.877 27.9487 111.872 28.1025C111.817 28.0527 111.6 27.749 111.614 27.5993C111.571 27.5854 111.63 27.6341 111.574 27.5993C111.536 27.3272 111.527 27.0791 111.541 26.8022ZM116.981 27.7729C116.835 27.7545 116.002 27.4364 115.899 27.3632L116.399 26.2763C116.54 26.3192 116.722 26.4121 116.874 26.4692C116.975 26.5072 117.293 26.6068 117.363 26.6496C117.333 26.7979 117.049 27.6166 116.981 27.7732L116.981 27.7729ZM111.342 26.326C111.488 26.6572 111.446 26.6436 111.421 27.0625L111.396 26.9838C111.368 26.8302 111.328 26.4516 111.342 26.3259V26.326ZM111.96 27.2222C111.852 27.1045 111.552 26.6661 111.574 26.5109C111.595 26.3549 111.719 25.8401 111.801 25.6883C111.803 25.6851 111.805 25.6808 111.807 25.6779C111.82 25.6563 111.82 25.6578 111.828 25.65C111.98 25.9032 111.977 25.9382 112.161 26.1857C112.323 26.4032 112.297 26.2689 112.104 26.7778L111.96 27.2222ZM115.798 27.3183C115.648 27.2701 115.437 27.1378 115.281 27.0619C115.104 26.9751 114.946 26.8687 114.78 26.7766C114.81 26.6723 115.006 26.3647 115.07 26.255C115.173 26.0784 115.283 25.9048 115.385 25.7367C115.631 25.8521 115.9 26.0591 116.297 26.2244L115.798 27.3184L115.798 27.3183ZM118.44 26.7899C118.108 26.7449 117.815 26.6399 117.509 26.5756L117.84 25.4093C118.081 25.4662 118.335 25.5551 118.597 25.5817C118.576 25.8677 118.517 26.5457 118.44 26.7898V26.7899ZM114.678 26.7031C114.548 26.6423 113.907 26.1698 113.803 26.0597C113.853 25.9241 114.033 25.7357 114.055 25.6989C114.14 25.5557 114.216 25.4658 114.317 25.3382C114.376 25.2637 114.45 25.1819 114.491 25.1037C114.575 25.1348 115.084 25.5812 115.291 25.6637C115.266 25.7408 114.7 26.676 114.678 26.7031H114.678ZM111.563 24.9729L111.58 24.9467L111.602 24.9888C111.615 25.1116 111.659 25.2297 111.697 25.3392C111.772 25.5494 111.774 25.457 111.694 25.6632C111.602 25.8981 111.54 26.1174 111.486 26.3731C111.383 26.24 111.349 25.8318 111.365 25.6334C111.387 25.3742 111.512 25.1853 111.563 24.973L111.563 24.9729ZM117.406 26.5368C117.109 26.4725 116.712 26.2869 116.45 26.1751L116.95 25.0798C117.169 25.1499 117.495 25.3319 117.731 25.37L117.406 26.5368H117.406ZM112.341 26.2238L111.945 25.6321C111.888 25.5249 111.865 25.5234 111.921 25.4158C112 25.2631 112.073 25.1332 112.158 24.9972L112.427 24.5972L112.488 24.6808C112.596 24.8796 112.755 25.1184 112.888 25.2901C112.88 25.3118 112.467 25.9397 112.341 26.2239V26.2238ZM118.605 25.4678C118.421 25.4726 118.058 25.3423 117.867 25.3066C117.889 25.1427 117.952 24.9346 117.99 24.7683C118.03 24.5885 118.077 24.3868 118.101 24.2021L118.623 24.3217C118.669 24.6244 118.618 25.1489 118.605 25.4678ZM116.35 26.1237C116.206 26.0803 115.517 25.7103 115.453 25.6339L115.943 24.8836C115.988 24.8182 116.071 24.6878 116.12 24.6412C116.201 24.6713 116.374 24.7852 116.472 24.839C116.561 24.8872 116.778 24.9783 116.849 25.0344L116.35 26.1237ZM119.248 24.5906C119.251 24.5971 119.26 24.5992 119.261 24.6222C119.263 24.6682 119.258 24.6546 119.248 24.6707C119.208 24.6359 119.213 24.6326 119.248 24.5906ZM111.832 25.356C111.769 25.2869 111.721 25.0442 111.703 24.9565C111.653 24.7046 111.681 24.7265 111.783 24.5402C111.85 24.4179 111.914 24.3191 111.984 24.2162C112.021 24.1619 112.057 24.1145 112.094 24.0647C112.118 24.0315 112.132 24.0136 112.15 23.9903L112.227 23.9081C112.271 24.3019 112.428 24.4194 112.358 24.5238C112.323 24.5758 112.276 24.6298 112.237 24.683C112.102 24.8652 111.93 25.1387 111.832 25.356ZM111.689 24.4806C111.687 24.2818 111.833 24.0072 111.915 23.8534C111.98 23.7322 112.18 23.373 112.254 23.3094C112.188 23.912 112.261 23.63 111.854 24.2182C111.812 24.2779 111.713 24.425 111.689 24.4806H111.689ZM116.791 22.9452C116.765 22.9963 116.804 22.9613 116.741 22.985L116.791 22.9452ZM116.791 22.9452C116.846 22.9067 116.873 22.877 116.943 22.8506L116.915 22.9444L116.791 22.9452ZM117.524 22.7745C117.489 22.849 117.525 22.7891 117.472 22.8433C117.469 22.8462 117.441 22.8719 117.43 22.8824L117.151 23.1415C117.105 23.0105 117.262 22.9474 117.173 22.7126L117.316 22.6476C117.431 22.7171 117.436 22.765 117.524 22.7746L117.524 22.7745ZM117.159 22.555C117.135 22.5988 117.148 22.5972 117.11 22.6137C117.117 22.5356 117.116 22.5709 117.159 22.555ZM112.325 23.5995C112.326 23.4631 112.361 23.3176 112.406 23.1979C112.479 23.0049 112.525 23.013 112.68 22.866C112.706 22.8408 112.717 22.8369 112.745 22.8151C112.85 22.7319 113.047 22.5585 113.159 22.5088C113.136 22.6602 113.116 22.7474 113.116 22.9114C112.935 23.0446 112.756 23.1866 112.6 23.3422L112.325 23.5995ZM117.159 22.555C117.128 22.4815 117.104 22.4908 117.049 22.4565C117.12 22.4177 117.095 22.4397 117.142 22.4829C117.173 22.5119 117.192 22.5182 117.22 22.5465C117.203 22.5622 117.228 22.5999 117.159 22.5548L117.159 22.555ZM112.977 22.4884C113.022 22.436 113.206 22.2689 113.272 22.2412C113.225 22.3442 113.235 22.3296 113.137 22.3888C113.077 22.4256 113.036 22.4551 112.977 22.4884H112.977ZM116.902 22.1092C116.795 22.1284 116.856 22.1078 116.802 22.069C116.745 22.0284 116.769 22.0867 116.718 22.0057L116.882 22.0208L116.902 22.1091V22.1092ZM118.619 21.7685C118.563 21.7413 118.598 21.8001 118.576 21.7298C118.611 21.7464 118.599 21.7312 118.619 21.7685ZM113.438 22.2045C113.635 21.8946 114.141 21.686 114.509 21.5944L114.334 21.8339C114.278 21.8636 113.825 21.9946 113.438 22.2045ZM117.809 21.4885C117.837 21.4693 117.788 21.4709 117.865 21.4771C117.93 21.4822 117.978 21.4898 118 21.532L117.809 21.4887V21.4885Z" fill="#7BC7F1"/>
<path fill-rule="evenodd" clip-rule="evenodd" d="M113.944 24.4078C113.971 24.4078 113.988 24.4006 114.001 24.4165C114.048 24.4701 113.989 24.4762 113.987 24.4783L113.944 24.408L113.944 24.4078ZM114.862 24.498C114.87 24.4619 114.862 24.4865 114.876 24.4652L114.93 24.3648L114.967 24.409L114.862 24.498ZM113.275 23.2496C113.252 23.2037 113.265 23.189 113.289 23.1568C113.33 23.1015 113.342 23.1036 113.381 23.0865C113.36 23.186 113.338 23.2141 113.275 23.2496ZM115.926 22.8693L116.07 23.0158C116.112 23.0565 116.174 23.1074 116.199 23.1672L116.176 23.1645C116.185 23.248 116.194 23.2147 116.151 23.2661C116.022 23.4213 115.912 23.3554 115.862 23.3656C115.781 23.3824 115.797 23.5045 115.722 23.5308C115.603 23.5721 115.594 23.4068 115.759 23.2675L115.81 23.2239C115.775 23.152 115.754 23.1765 115.747 23.1091C115.745 23.0895 115.754 22.9836 115.754 22.9508L115.926 22.8693H115.926ZM115.712 22.8313C115.794 22.761 115.641 22.8817 115.733 22.8148C115.823 22.7499 115.765 22.8013 115.819 22.7311L115.851 22.7845L115.691 22.8529L115.712 22.8312V22.8313ZM115.93 22.6809C115.995 22.6375 115.986 22.6353 116.075 22.6744L115.952 22.7244L115.93 22.6808V22.6809ZM116.691 21.4057C116.656 21.4222 116.632 21.4097 116.602 21.3903C116.658 21.3805 116.648 21.3707 116.691 21.4057ZM116.406 21.3402C116.423 21.3298 116.376 21.319 116.445 21.3292C116.48 21.3344 116.481 21.3505 116.482 21.3579L116.406 21.34V21.3402ZM116.888 21.3458C116.82 21.3315 116.847 21.3484 116.811 21.3089C116.841 21.3127 116.815 21.3013 116.853 21.3171C116.901 21.3376 116.863 21.3223 116.888 21.3457L116.888 21.3458ZM116.519 21.232C116.644 21.2162 116.756 21.2177 116.859 21.2726L116.763 21.3056L116.519 21.232ZM115.797 21.0915L115.699 21.1053L115.764 21.111L115.726 21.1475C115.724 21.1505 115.721 21.1543 115.72 21.1574C115.692 21.2014 115.748 21.2058 115.658 21.2254C115.706 21.253 115.602 21.2222 115.688 21.2274C115.693 21.2278 115.767 21.2228 115.797 21.2587L115.957 21.2641L115.944 21.2912C115.927 21.3559 115.935 21.3426 115.942 21.3819L115.96 21.5049L115.907 21.4962L115.831 21.5101C115.756 21.5064 115.819 21.5072 115.776 21.5335C115.774 21.5351 115.77 21.5383 115.767 21.5399C115.718 21.5662 115.706 21.5537 115.649 21.5531C115.61 21.5688 115.648 21.5599 115.608 21.5928C115.571 21.6234 115.634 21.6077 115.551 21.6166L115.514 21.6494C115.41 21.7339 115.468 21.632 115.478 21.6983L115.455 21.7603C115.4 21.7702 115.473 21.7678 115.418 21.754C115.376 21.7495 115.392 21.7442 115.348 21.7598C115.228 21.802 115.401 21.7917 115.228 21.8347C114.664 21.9749 115.033 21.9575 114.618 22.1619L114.601 22.1006C114.552 22.1354 114.537 22.1507 114.491 22.1802C114.466 22.1968 114.393 22.2312 114.388 22.2345C114.395 22.2593 114.422 22.1928 114.377 22.2765C114.336 22.3545 114.354 22.2404 114.339 22.339L114.314 22.2414C114.314 22.2404 114.332 22.1856 114.252 22.161L114.244 22.2766C114.071 22.3153 113.948 22.3785 113.84 22.4621C113.764 22.5207 113.515 22.6355 113.48 22.6807C113.479 22.7046 113.502 22.6994 113.471 22.6996C113.485 22.6959 113.452 22.6851 113.52 22.6949C113.53 22.6963 113.551 22.7138 113.553 22.716L113.519 22.7887C113.497 22.8501 113.434 22.9188 113.399 22.9549C113.361 22.9936 113.358 23.005 113.331 23.0343C113.287 23.0811 113.288 23.0516 113.27 23.1171C113.266 23.1207 113.258 23.1218 113.254 23.1228C113.22 23.1309 113.211 23.1382 113.164 23.1147C113.162 23.1136 113.158 23.1114 113.156 23.1103L113.12 23.0842L113.16 23.2753L113.077 23.2987C113.033 23.5126 112.937 23.4811 112.86 23.7132C112.822 23.8277 112.851 23.7644 112.865 23.7844C112.916 23.7428 112.932 23.6219 113.004 23.5427C113.066 23.4757 113.117 23.3849 113.164 23.311C113.246 23.4288 113.029 23.6452 112.992 23.7433C112.885 24.0227 112.931 23.8578 112.743 24.0687L112.709 24.1232C112.707 24.1774 112.708 24.147 112.733 24.1846L112.783 24.2553C112.77 24.2666 112.736 24.27 112.731 24.2718C112.713 24.4269 112.721 24.4898 112.736 24.6471C112.741 24.7038 112.745 24.7831 112.758 24.8382C112.784 24.9508 112.786 24.9289 112.858 24.958L112.898 24.9599C112.898 24.9545 112.896 24.9411 112.899 24.9274C112.906 24.8926 112.903 24.913 112.915 24.8937L112.979 24.9106L112.985 24.8657C112.975 24.7298 112.962 24.7163 113.018 24.6042C113.079 24.4799 113.142 24.3067 113.297 24.2441C113.393 24.2049 113.373 24.1528 113.471 24.087C113.55 24.1191 113.582 24.1209 113.627 24.1819C113.662 24.2306 113.712 24.2863 113.708 24.336C113.743 24.3487 113.742 24.3706 113.771 24.3967C113.832 24.4213 113.803 24.4182 113.848 24.469C113.912 24.5417 113.98 24.5923 114.075 24.7141C114.042 24.7772 114.017 24.7545 114.018 24.8298C114.048 24.9121 114.083 24.8558 114.045 24.9392C114.073 24.911 114.081 24.8536 114.1 24.8058L114.176 24.7304C114.261 24.7071 114.19 24.746 114.187 24.711C114.187 24.7025 114.152 24.6264 114.237 24.6379L114.269 24.6563C114.534 24.5286 114.269 24.6112 114.619 24.6243C114.75 24.6291 114.726 24.6213 114.738 24.6595L114.745 24.6847C114.745 24.687 114.747 24.693 114.747 24.6953L114.733 24.718C114.776 24.6972 114.732 24.6987 114.812 24.704C114.815 24.7021 114.82 24.6957 114.821 24.6982C114.822 24.7008 114.827 24.6935 114.829 24.6924C114.965 24.5913 114.95 24.5149 115.147 24.3907C115.193 24.3614 115.153 24.3764 115.208 24.3448C115.291 24.3485 115.392 24.3977 115.437 24.4337C115.439 24.4312 115.439 24.4228 115.439 24.4249C115.44 24.4296 115.438 24.2639 115.619 24.3157C115.677 24.3322 115.691 24.3466 115.737 24.3824C115.796 24.428 115.786 24.4192 115.777 24.5006C115.923 24.4624 115.858 24.4796 115.986 24.5533C116.006 24.4933 115.969 24.5331 116.027 24.5011C116.034 24.5539 116.021 24.5024 116.046 24.5219L116.076 24.542C116.087 24.4835 116.103 24.4933 116.097 24.4784C116.053 24.4509 115.975 24.3815 115.969 24.3348C115.953 24.2146 116.067 24.2843 115.993 24.1517C116.073 24.163 116.056 24.1873 116.106 24.1588L116.114 24.1041C115.988 24.0726 115.985 24.0974 115.87 24.0334C115.98 24.0031 115.959 24.0528 116.096 23.9966C116.161 24.0519 116.15 24.0511 116.244 24.0657C116.282 24.0458 116.28 24.0563 116.322 24.0587C116.323 24.0613 116.324 24.0663 116.324 24.0676L116.329 24.0901C116.335 24.1146 116.309 24.0664 116.338 24.1159C116.35 24.1374 116.364 24.1587 116.379 24.1653C116.354 24.2412 116.35 24.1967 116.338 24.2226C116.382 24.1801 116.332 24.1973 116.411 24.2056C116.461 24.2018 116.516 24.1812 116.539 24.1799C116.61 24.1764 116.57 24.2039 116.657 24.2228C116.689 24.1693 116.74 24.1509 116.73 24.078C116.718 23.9951 116.638 24.0145 116.583 23.9933C116.611 23.9603 116.622 23.945 116.725 23.9876C116.64 23.8278 116.686 23.9024 116.726 23.7857C116.702 23.7539 116.688 23.8139 116.715 23.7156L116.674 23.703C116.661 23.63 116.678 23.6778 116.687 23.6286C116.69 23.6148 116.683 23.5918 116.682 23.5673C116.662 23.556 116.667 23.5906 116.662 23.5337C116.659 23.4999 116.7 23.4684 116.649 23.5019L116.649 23.5182C116.53 23.5182 116.615 23.5253 116.594 23.4866C116.499 23.4658 116.493 23.4629 116.444 23.401L116.471 23.3548C116.472 23.3536 116.476 23.3505 116.477 23.3493C116.478 23.3483 116.483 23.3458 116.484 23.3449L116.526 23.2806C116.547 23.3887 116.539 23.342 116.551 23.3462C116.548 23.3419 116.503 23.3833 116.547 23.322C116.583 23.2709 116.519 23.3154 116.593 23.3016C116.594 23.2864 116.562 23.2661 116.557 23.2218C116.548 23.1287 116.608 23.1459 116.546 23.1311C116.468 23.1214 116.479 23.1117 116.469 23.0759C116.456 23.1305 116.472 23.0886 116.438 23.1106C116.399 23.135 116.367 23.1324 116.337 23.1171C116.247 23.0663 116.093 22.9024 116.037 22.8072C116.212 22.7559 116.125 22.7427 116.34 22.7051C116.408 22.693 116.353 22.6973 116.404 22.6683C116.479 22.6253 116.565 22.6311 116.594 22.7528C116.732 22.7568 116.84 22.7315 116.825 22.5859C116.755 22.5978 116.76 22.5964 116.702 22.5575L116.768 22.5203C116.689 22.4787 116.772 22.4902 116.716 22.4697C116.716 22.4696 116.658 22.466 116.635 22.4594C116.596 22.4595 116.533 22.4612 116.476 22.4605C116.468 22.3946 116.489 22.3338 116.41 22.306C116.373 22.265 116.399 22.3081 116.38 22.2479C116.37 22.2142 116.378 22.2556 116.378 22.2184C116.377 22.1392 116.385 22.2595 116.38 22.1555C116.375 22.1474 116.384 22.1575 116.362 22.1347C116.36 22.1316 116.349 22.1231 116.346 22.1198C116.317 22.0862 116.341 22.1281 116.321 22.0769C116.347 22.0576 116.313 22.0691 116.356 22.0601C116.418 22.0469 116.384 22.102 116.435 21.9979L116.546 21.9989L116.461 21.8732L116.536 21.864L116.553 21.8124C116.533 21.7974 116.539 21.803 116.517 21.7984C116.48 21.7476 116.486 21.8645 116.486 21.733L116.551 21.7329C116.486 21.6911 116.457 21.694 116.469 21.6183L116.499 21.6118C116.557 21.6077 116.517 21.631 116.562 21.6268C116.659 21.6246 116.617 21.5818 116.738 21.6111C116.809 21.6282 116.83 21.6441 116.904 21.6437L116.853 21.6015L116.88 21.5201L116.894 21.5165L116.899 21.4718L117.006 21.4986C117.004 21.4933 116.997 21.5115 117.003 21.4771C117.015 21.4111 117.021 21.43 117.048 21.4208L116.891 21.3414C116.951 21.3346 117.004 21.3394 117.06 21.3523C117.124 21.3671 117.131 21.3908 117.192 21.3984C117.205 21.3709 117.195 21.3871 117.219 21.3644L117.234 21.3516C117.286 21.3084 117.3 21.2865 117.345 21.3079C117.385 21.3274 117.35 21.3476 117.396 21.3659L117.454 21.3668L117.55 21.3399C117.525 21.2948 117.536 21.3471 117.515 21.3049L117.518 21.1953C117.357 21.1323 116.899 21.0849 116.701 21.0721C116.383 21.0517 116.11 21.0706 115.798 21.0913L115.797 21.0915Z" fill="#7BC7F1"/>
<path fill-rule="evenodd" clip-rule="evenodd" d="M114.87 28.47L114.854 28.4069C114.959 28.449 114.973 28.4144 115.023 28.4313C114.972 28.4879 114.945 28.4874 114.87 28.47H114.87ZM113.583 26.1806C113.51 26.2261 113.483 26.3736 113.406 26.4299C113.315 26.3959 113.357 26.4141 113.305 26.352L113.295 26.3557C113.231 26.4616 113.282 26.5079 113.224 26.5964C113.207 26.6231 113.174 26.6567 113.166 26.6871C113.154 26.7342 113.174 26.7851 113.16 26.7974C113.038 26.851 113.155 26.7357 113.012 26.8084C112.942 26.8438 112.879 26.8252 112.826 26.8059C112.82 26.8271 112.82 26.8198 112.802 26.8436C112.782 26.8709 112.797 26.8476 112.774 26.8785C112.781 26.9014 112.777 26.9936 112.768 27.0405C112.749 27.14 112.723 27.0782 112.68 27.1054C112.603 27.1532 112.672 27.2969 112.692 27.3617C112.722 27.4601 112.738 27.8885 112.717 27.986L112.723 28.0174L112.693 28.1211C112.696 28.1232 112.701 28.1247 112.703 28.1258C112.778 28.1666 112.765 28.1904 112.793 28.2331C112.842 28.3311 112.835 28.2388 112.935 28.3958C113.155 28.7427 112.897 28.8336 112.888 29.0773L112.899 29.1398C112.897 29.1458 112.895 29.1498 112.892 29.1558L112.844 29.2325C112.889 29.3685 112.799 29.3467 112.79 29.4279C112.779 29.5294 112.808 29.6209 112.885 29.634C112.914 29.6624 112.918 29.5719 112.912 29.7099C112.909 29.7892 112.893 29.7556 112.89 29.7588L112.909 29.7983C112.948 29.8799 112.917 29.8831 112.915 29.9227L112.917 29.9358C112.917 29.9372 112.919 29.9414 112.919 29.9429L112.927 29.9895C112.927 29.9874 112.928 29.9974 112.925 30.0001C112.954 30.0557 112.973 30.0797 113.032 30.0939L113.052 30.0875C113.054 30.0869 113.059 30.0856 113.061 30.085C113.14 30.0541 113.065 30.1371 113.095 30.0209C113.212 30.0375 113.124 30.028 113.187 30.0542C113.216 30.0663 113.209 30.0512 113.239 30.0557C113.273 30.0607 113.293 30.0675 113.31 30.102L113.295 30.0405L113.257 29.9812L113.373 29.957C113.387 29.9278 113.37 29.9539 113.39 29.9265C113.412 29.9467 113.412 29.9346 113.418 29.9718C113.424 29.9735 113.429 29.9786 113.432 29.9805C113.51 30.0219 113.467 29.9826 113.552 30.0035L113.586 30.0196C113.607 30.0696 113.638 30.0595 113.706 30.0588C113.682 30.0001 113.649 29.9353 113.623 29.8746C113.678 29.9074 113.795 30.0281 113.849 30.0383C113.904 30.0488 113.994 30.0324 114.045 30.0352C114.125 30.0395 114.117 30.0748 114.191 30.0806C114.225 30.0276 114.195 30.1239 114.193 30.0283L114.205 29.9951C114.21 29.9816 114.137 30.0163 114.269 29.9299L114.358 29.89C114.438 29.8829 114.491 29.8636 114.595 29.8796L114.577 29.8315C114.575 29.8183 114.572 29.8157 114.569 29.808C114.672 29.8427 114.615 29.833 114.634 29.8524C114.676 29.893 114.561 29.8605 114.651 29.8736C114.61 29.9118 114.648 29.8654 114.668 29.8644C114.734 29.861 114.667 29.8519 114.713 29.8789C114.997 30.029 115.039 29.912 115.208 29.8246C115.321 29.7662 115.244 29.7496 115.34 29.7204C115.387 29.6744 115.354 29.7167 115.363 29.6326C115.466 29.4651 115.784 29.5139 115.894 29.364C116.061 29.1371 115.865 29.1719 115.783 29.0523C115.59 28.7708 115.671 28.9333 115.551 28.826C115.389 28.6804 115.464 28.8079 115.336 28.6642C115.314 28.6386 115.318 28.6451 115.306 28.6381C115.255 28.6213 115.291 28.635 115.234 28.5847C115.198 28.5532 115.138 28.5337 115.139 28.4965L115.145 28.4797C115.206 28.3496 115.152 28.5477 115.171 28.4485C115.097 28.4288 115.137 28.4841 115.126 28.3692L114.901 28.2392L115.01 28.1864C115.002 28.1245 114.987 27.9988 114.96 27.9587C114.903 27.8726 114.858 27.7872 114.787 27.7065C114.758 27.6745 114.756 27.6759 114.709 27.6536C114.417 27.5148 114.622 27.5756 114.482 27.3181L114.402 27.2543C114.365 27.2103 114.373 27.1608 114.397 27.1252L114.357 27.0392C114.287 26.9233 114.236 26.994 114.145 26.8582C114.093 26.7818 114.056 26.7881 114.003 26.7374C113.958 26.6944 113.943 26.6189 113.908 26.571C113.849 26.6217 113.86 26.6363 113.749 26.5994C113.751 26.5308 113.773 26.5217 113.807 26.4907C113.838 26.4626 113.861 26.4505 113.878 26.4212C113.787 26.4373 113.662 26.4175 113.581 26.3907C113.621 26.2797 113.684 26.2412 113.694 26.1702L113.685 26.1521C113.651 26.0425 113.728 26.2043 113.69 26.0998C113.674 26.0532 113.719 26.0848 113.676 26.0899C113.647 26.1589 113.665 26.1939 113.583 26.1806H113.583Z" fill="#7BC7F1"/>
<path fill-rule="evenodd" clip-rule="evenodd" d="M117.579 22.7233C117.558 22.7543 117.575 22.7347 117.544 22.7557C117.524 22.7695 117.535 22.7633 117.512 22.772C117.514 22.7743 117.516 22.7789 117.517 22.7794L117.582 22.7652C117.579 22.7695 117.561 22.7875 117.559 22.7914C117.504 22.88 117.524 22.7392 117.551 22.8293C117.569 22.8897 117.571 22.7917 117.575 22.8699L117.635 22.8614C117.616 22.9997 117.616 22.9393 117.561 23.0273L117.596 23.0622C117.623 23.0891 117.596 23.0461 117.626 23.093L117.591 23.2169C117.437 23.2527 117.413 23.2484 117.372 23.4045C117.346 23.5026 117.329 23.7432 117.369 23.7316C117.46 23.7563 117.385 23.7556 117.473 23.789C117.539 23.8138 117.52 23.7784 117.582 23.8625C117.547 23.8712 117.547 23.861 117.526 23.8897C117.502 23.9235 117.51 23.8755 117.517 23.9443L117.478 23.9112C117.478 23.911 117.481 23.9122 117.481 23.9113C117.481 23.9102 117.483 23.9125 117.484 23.9117C117.497 23.9431 117.49 23.9243 117.5 23.9732L117.55 23.9872C117.568 23.9501 117.516 23.9777 117.585 23.9675L117.631 23.9239L117.586 23.8957C117.601 23.8711 117.604 23.8673 117.616 23.8332L117.639 23.7715C117.641 23.7678 117.645 23.7625 117.647 23.7595C117.663 23.7334 117.703 23.7359 117.747 23.7159C117.795 23.6937 117.793 23.6787 117.838 23.6594C117.901 23.6324 117.984 23.6341 118.041 23.5879C118.077 23.5159 118.005 23.5819 118.09 23.5348C118.098 23.5515 118.065 23.5884 118.16 23.5522C118.163 23.5514 118.171 23.5522 118.173 23.5469C118.175 23.5415 118.181 23.5428 118.185 23.5415C118.251 23.5371 118.329 23.4863 118.375 23.4526L118.349 23.4399C118.345 23.4388 118.339 23.4361 118.335 23.4347L118.251 23.4205C118.244 23.3563 118.24 23.3494 118.27 23.3049C118.332 23.3464 118.262 23.3227 118.412 23.4154C118.398 23.2603 118.365 23.3568 118.339 23.2397C118.382 23.2159 118.369 23.2393 118.418 23.2089C118.449 23.1899 118.43 23.1844 118.462 23.1754L118.497 23.3054C118.498 23.3035 118.499 23.3006 118.5 23.2997C118.501 23.2985 118.504 23.2938 118.505 23.2923L118.53 23.2701C118.533 23.2599 118.542 23.2608 118.548 23.2561C118.525 23.4022 118.513 23.3159 118.577 23.4035C118.593 23.3812 118.547 23.3919 118.622 23.3809L118.579 23.1897L118.728 23.1985C118.719 23.1936 118.691 23.1792 118.679 23.174L118.712 23.0874C118.138 23.0613 118.488 22.8498 118.435 22.6962C118.364 22.6622 118.326 22.6918 118.272 22.6733C118.155 22.6334 118.28 22.6314 118.313 22.6228C118.225 22.5433 118.265 22.5338 118.088 22.5191L118.045 22.5927C117.965 22.5133 118.009 22.5206 117.941 22.5019C117.905 22.4922 117.811 22.494 117.77 22.4907L117.762 22.5335C117.625 22.5771 117.497 22.4156 117.513 22.6588C117.571 22.6815 117.595 22.6869 117.629 22.7315C117.598 22.7155 117.613 22.7251 117.579 22.7227L117.579 22.7233Z" fill="#7BC7F1"/>
<path fill-rule="evenodd" clip-rule="evenodd" d="M113.693 26.1702C113.684 26.2412 113.621 26.2797 113.581 26.3907C113.662 26.4175 113.786 26.4372 113.877 26.4212C113.861 26.4506 113.837 26.4627 113.807 26.4907C113.773 26.5217 113.75 26.5309 113.749 26.5994C113.86 26.6363 113.849 26.6217 113.907 26.571C113.942 26.6189 113.958 26.6944 114.003 26.7374C114.055 26.7881 114.092 26.7818 114.144 26.8582C114.236 26.994 114.286 26.9234 114.356 27.0392L114.397 27.1252C114.452 27.1448 114.429 27.1589 114.472 27.0758L114.611 26.8104L113.761 26.175C113.704 26.1451 113.75 26.1474 113.693 26.1701L113.693 26.1702Z" fill="#7BC7F1"/>
<path fill-rule="evenodd" clip-rule="evenodd" d="M113.305 26.352C113.357 26.414 113.315 26.3959 113.406 26.4299C113.483 26.3736 113.51 26.2262 113.583 26.1805C113.603 26.1209 113.617 26.1261 113.632 26.0735L113.263 25.7148C113.203 25.7621 113.154 25.8148 113.111 25.8937C113.07 25.968 113.106 26.084 113.125 26.176L113.288 26.2404L113.305 26.352H113.305Z" fill="#7BC7F1"/>
<path fill-rule="evenodd" clip-rule="evenodd" d="M112.858 24.958C112.786 24.9288 112.783 24.9508 112.758 24.8382C112.745 24.7831 112.741 24.7038 112.736 24.6471C112.721 24.4897 112.713 24.4268 112.731 24.2718L112.725 24.2629C112.672 24.2866 112.542 24.4428 112.514 24.5011C112.573 24.6391 112.728 24.8998 112.826 25.0301C112.831 25.0365 112.856 25.0673 112.857 25.0684L112.858 24.958Z" fill="#7BC7F1"/>
<path fill-rule="evenodd" clip-rule="evenodd" d="M116.305 24.3841C116.327 24.4487 116.313 24.4013 116.36 24.4457L116.534 24.6469C116.591 24.6223 116.569 24.6109 116.652 24.5877C116.656 24.5111 116.669 24.4786 116.641 24.4271C116.599 24.3502 116.604 24.3762 116.538 24.3375L116.64 24.2457C116.546 24.2456 116.531 24.2413 116.469 24.3057C116.383 24.3955 116.39 24.308 116.305 24.3841H116.305Z" fill="#7BC7F1"/>
<path fill-rule="evenodd" clip-rule="evenodd" d="M117.564 22.3067C117.534 22.3358 117.542 22.3603 117.5 22.4009L117.272 22.3861C117.302 22.4902 117.324 22.4935 117.402 22.4343L117.437 22.466C117.496 22.4996 117.706 22.4686 117.777 22.4679L117.9 22.457L117.846 22.3856C117.825 22.356 117.831 22.3494 117.791 22.327C117.761 22.3105 117.665 22.2768 117.633 22.2628L117.563 22.3067H117.564Z" fill="#7BC7F1"/>
<path fill-rule="evenodd" clip-rule="evenodd" d="M114.067 25.9245L113.965 25.8596C113.963 25.9892 114.04 25.9014 114.095 26.0696C114.188 26.0715 114.25 26.1136 114.319 26.1353L114.293 26.0369C114.27 25.9634 114.3 25.9962 114.242 25.942C114.21 25.9125 114.117 25.8274 114.067 25.8076V25.9245Z" fill="#7BC7F1"/>
<path fill-rule="evenodd" clip-rule="evenodd" d="M118.937 24.8124C118.946 24.8448 118.942 24.8285 118.953 24.8503C118.955 24.8544 118.963 24.8691 118.965 24.8729C118.967 24.8759 118.97 24.8812 118.972 24.8837C118.973 24.8861 118.977 24.8907 118.978 24.8943C118.954 24.9305 118.89 24.9821 118.959 24.9996C118.996 25.0091 119.083 24.9728 119.11 24.9599C119.121 24.5818 119.097 24.7504 119.014 24.7057C118.99 24.797 119.008 24.7734 118.962 24.8009L118.938 24.8124H118.937Z" fill="#7BC7F1"/>
<path fill-rule="evenodd" clip-rule="evenodd" d="M112.885 29.634C112.807 29.6207 112.779 29.5292 112.79 29.4278C112.799 29.3466 112.888 29.3686 112.843 29.2324C112.768 29.2061 112.766 29.1665 112.69 29.1361C112.7 29.24 112.723 29.363 112.751 29.4624C112.8 29.6322 112.801 29.6728 112.885 29.7111V29.6341L112.885 29.634Z" fill="#7BC7F1"/>
<path fill-rule="evenodd" clip-rule="evenodd" d="M116.357 22.7807C116.358 22.7995 116.353 22.7884 116.336 22.8332L116.421 22.8298C116.432 22.8967 116.436 22.9114 116.48 22.9387C116.505 22.8953 116.508 22.769 116.499 22.7042L116.337 22.7502C116.341 22.754 116.356 22.7776 116.357 22.7807H116.357Z" fill="#7BC7F1"/>
<path fill-rule="evenodd" clip-rule="evenodd" d="M117.564 22.3069C117.57 22.2906 117.565 22.2863 117.586 22.2558L117.493 22.2339C117.451 22.2698 117.463 22.2392 117.413 22.2679C117.399 22.2757 117.369 22.3083 117.359 22.3168L117.505 22.3552L117.564 22.3069Z" fill="#7BC7F1"/>
<path fill-rule="evenodd" clip-rule="evenodd" d="M118.815 22.8169C118.83 22.8903 118.85 22.8788 118.908 22.9146C118.972 22.9551 118.907 22.9146 118.94 22.9567C118.969 22.9936 118.958 22.9775 119.001 22.9753C118.964 22.8753 118.944 22.8118 118.815 22.8168L118.815 22.8169Z" fill="#7BC7F1"/>
<path fill-rule="evenodd" clip-rule="evenodd" d="M116.955 22.3121L116.938 22.239L116.902 22.2401C116.859 22.2705 116.787 22.2591 116.729 22.3281C116.839 22.3541 116.849 22.3034 116.955 22.3121Z" fill="#7BC7F1"/>
<path fill-rule="evenodd" clip-rule="evenodd" d="M119.948 26.0892C119.993 26.0736 120.028 26.0948 119.975 25.928C119.958 25.8745 119.955 25.8861 119.937 25.8665C119.914 25.9542 119.952 25.9702 119.948 26.0892Z" fill="#7BC7F1"/>
<path fill-rule="evenodd" clip-rule="evenodd" d="M116.567 22.4203C116.607 22.4066 116.575 22.4319 116.605 22.3955C116.62 22.3778 116.624 22.3629 116.631 22.351L116.532 22.3429C116.54 22.3971 116.539 22.3879 116.567 22.4204V22.4203Z" fill="#7BC7F1"/>
<path fill-rule="evenodd" clip-rule="evenodd" d="M113.725 25.6716C113.755 25.7371 113.727 25.7618 113.808 25.7879C113.808 25.7129 113.771 25.6917 113.725 25.6716Z" fill="#7BC7F1"/>
<path fill-rule="evenodd" clip-rule="evenodd" d="M114.967 24.4089L114.93 24.3647L114.876 24.4651C114.862 24.4864 114.87 24.4618 114.862 24.4979L114.967 24.4089Z" fill="#7BC7F1"/>
<path fill-rule="evenodd" clip-rule="evenodd" d="M117.025 21.957C117.041 21.9816 117.024 21.9774 117.082 22.0055C117.109 22.0189 117.122 22.0229 117.152 22.0292C117.132 21.9991 117.077 21.9343 117.025 21.957Z" fill="#7BC7F1"/>
<path fill-rule="evenodd" clip-rule="evenodd" d="M117.333 22.2011C117.29 22.1882 117.35 22.213 117.311 22.1934L117.286 22.1741L117.273 22.2079C117.289 22.2171 117.25 22.2249 117.329 22.2195C117.271 22.265 117.289 22.2181 117.301 22.2759L117.35 22.2541C117.342 22.2201 117.35 22.2316 117.333 22.2011H117.333Z" fill="#7BC7F1"/>
<path fill-rule="evenodd" clip-rule="evenodd" d="M118.822 22.7652L118.936 22.8079C118.914 22.745 118.936 22.7749 118.893 22.7367L118.822 22.7652Z" fill="#7BC7F1"/>
<path fill-rule="evenodd" clip-rule="evenodd" d="M118.855 22.1947C118.958 22.2092 118.878 22.2035 118.896 22.1753C118.862 22.1231 118.876 22.1308 118.831 22.0981C118.835 22.1333 118.847 22.1592 118.855 22.1947H118.855Z" fill="#7BC7F1"/>
<path fill-rule="evenodd" clip-rule="evenodd" d="M113.987 24.4782C113.989 24.4761 114.048 24.4702 114.001 24.4164C113.988 24.4006 113.971 24.4077 113.944 24.4077L113.987 24.4781L113.987 24.4782Z" fill="#7BC7F1"/>
<path fill-rule="evenodd" clip-rule="evenodd" d="M119.932 25.8376C119.963 25.7946 119.95 25.8843 119.955 25.7792C119.956 25.7624 119.946 25.7429 119.944 25.7363C119.903 25.7849 119.915 25.7725 119.932 25.8374V25.8376Z" fill="#7BC7F1"/>
<path fill-rule="evenodd" clip-rule="evenodd" d="M119.249 24.6197C119.248 24.5967 119.239 24.5946 119.236 24.5881C119.201 24.6302 119.196 24.6334 119.236 24.6682C119.246 24.6521 119.251 24.6657 119.249 24.6197Z" fill="#7BC7F1"/>
<path fill-rule="evenodd" clip-rule="evenodd" d="M120.666 25.6934C120.686 25.7185 120.672 25.6978 120.68 25.7375C120.722 25.7046 120.715 25.719 120.724 25.6649L120.666 25.6934Z" fill="#7BC7F1"/>
<path fill-rule="evenodd" clip-rule="evenodd" d="M119.763 22.8251L119.824 22.8488C119.821 22.8455 119.818 22.8359 119.817 22.8387C119.817 22.8387 119.814 22.8181 119.729 22.7832C119.75 22.8213 119.73 22.7972 119.763 22.8251Z" fill="#7BC7F1"/>
<path fill-rule="evenodd" clip-rule="evenodd" d="M117.333 22.201L117.36 22.1523L117.286 22.174L117.311 22.1933C117.35 22.2129 117.29 22.188 117.333 22.201Z" fill="#7BC7F1"/>
<path fill-rule="evenodd" clip-rule="evenodd" d="M119.052 22.9389C119.04 22.8675 119.078 22.9017 119.005 22.8805L119.052 22.9389Z" fill="#7BC7F1"/>
<path fill-rule="evenodd" clip-rule="evenodd" d="M118.855 22.1948L118.8 22.1888L118.843 22.2238C118.886 22.198 118.856 22.2443 118.855 22.1948Z" fill="#7BC7F1"/>
<path fill-rule="evenodd" clip-rule="evenodd" d="M120.084 25.616C120.08 25.5348 120.099 25.5853 120.052 25.562L120.084 25.616Z" fill="#7BC7F1"/>
<path fill-rule="evenodd" clip-rule="evenodd" d="M119.901 22.9107C119.941 22.9107 119.876 22.8807 119.873 22.8793C119.887 22.9096 119.85 22.8895 119.901 22.9107Z" fill="#7BC7F1"/>
<path fill-rule="evenodd" clip-rule="evenodd" d="M116.911 21.5547C116.894 21.5361 116.906 21.5466 116.894 21.5167L116.88 21.5203C116.893 21.5613 116.863 21.5448 116.911 21.5547Z" fill="#7BC7F1"/>
<path fill-rule="evenodd" clip-rule="evenodd" d="M119.663 26.0766C119.683 26.0504 119.676 26.0594 119.663 26.0385C119.653 26.0553 119.634 26.041 119.663 26.0766Z" fill="#7BC7F1"/>
<path fill-rule="evenodd" clip-rule="evenodd" d="M119.872 22.8788C119.87 22.8759 119.867 22.8673 119.865 22.8701C119.864 22.8729 119.86 22.8633 119.858 22.8622C119.829 22.8455 119.857 22.8574 119.824 22.8486C119.826 22.8516 119.83 22.853 119.831 22.8579C119.833 22.8626 119.838 22.8648 119.839 22.8658C119.864 22.8797 119.844 22.8722 119.872 22.8788Z" fill="#7BC7F1"/>
<path d="M95.9914 36.0367V16.5499H99.4974V24.2797H108.471V27.347H99.4974V36.0367H95.9914Z" fill="#7BC7F1"/>
<path fill-rule="evenodd" clip-rule="evenodd" d="M96.4585 18.1726H97.2087V18.9553H96.4585V18.1726Z" fill="white"/>
<path fill-rule="evenodd" clip-rule="evenodd" d="M98.024 18.1726H98.7742V18.9553H98.024V18.1726Z" fill="white"/>
<path fill-rule="evenodd" clip-rule="evenodd" d="M96.4585 19.2979H97.2087V20.0805H96.4585V19.2979Z" fill="white"/>
<path fill-rule="evenodd" clip-rule="evenodd" d="M98.024 19.2979H98.7742V20.0805H98.024V19.2979Z" fill="white"/>
<path fill-rule="evenodd" clip-rule="evenodd" d="M96.4585 21.6785H97.2087V22.4612H96.4585V21.6785Z" fill="white"/>
<path fill-rule="evenodd" clip-rule="evenodd" d="M98.024 21.6785H98.7742V22.4612H98.024V21.6785Z" fill="white"/>
<path fill-rule="evenodd" clip-rule="evenodd" d="M96.4585 22.8037H97.2087V23.5865H96.4585V22.8037Z" fill="white"/>
<path fill-rule="evenodd" clip-rule="evenodd" d="M98.024 22.8037H98.7742V23.5865H98.024V22.8037Z" fill="white"/>
<path fill-rule="evenodd" clip-rule="evenodd" d="M96.5564 28.2661H97.3066V29.049H96.5564V28.2661Z" fill="white"/>
<path fill-rule="evenodd" clip-rule="evenodd" d="M98.122 28.2661H98.872V29.049H98.122V28.2661Z" fill="white"/>
<path fill-rule="evenodd" clip-rule="evenodd" d="M96.5564 29.3914H97.3066V30.1743H96.5564V29.3914Z" fill="white"/>
<path fill-rule="evenodd" clip-rule="evenodd" d="M98.122 29.3914H98.872V30.1743H98.122V29.3914Z" fill="white"/>
<path fill-rule="evenodd" clip-rule="evenodd" d="M96.5564 31.7721H97.3066V32.5547H96.5564V31.7721Z" fill="white"/>
<path fill-rule="evenodd" clip-rule="evenodd" d="M98.122 31.7721H98.872V32.5547H98.122V31.7721Z" fill="white"/>
<path fill-rule="evenodd" clip-rule="evenodd" d="M96.5564 32.8972H97.3066V33.68H96.5564V32.8972Z" fill="white"/>
<path fill-rule="evenodd" clip-rule="evenodd" d="M98.122 32.8972H98.872V33.68H98.122V32.8972Z" fill="white"/>
<path fill-rule="evenodd" clip-rule="evenodd" d="M101.008 24.8093H101.758V25.592H101.008V24.8093Z" fill="white"/>
<path fill-rule="evenodd" clip-rule="evenodd" d="M102.574 24.8093H103.324V25.592H102.574V24.8093Z" fill="white"/>
<path fill-rule="evenodd" clip-rule="evenodd" d="M101.008 25.9346H101.758V26.7172H101.008V25.9346Z" fill="white"/>
<path fill-rule="evenodd" clip-rule="evenodd" d="M102.574 25.9346H103.324V26.7172H102.574V25.9346Z" fill="white"/>
<path d="M123.324 18.8274L120.508 21.1449C120.019 20.546 119.421 20.089 118.707 19.7735C117.999 19.4536 117.231 19.2983 116.399 19.2983C115.274 19.2983 114.205 19.5862 113.199 20.1668C112.189 20.7472 111.403 21.5791 110.841 22.6579C110.279 23.7366 109.995 24.9388 109.995 26.2599C109.995 27.5534 110.269 28.7099 110.813 29.7292C111.357 30.7486 112.143 31.5393 113.163 32.1016C114.187 32.6638 115.265 32.9426 116.399 32.9426C118.273 32.9426 119.736 32.1885 120.792 30.68L123.818 32.8651C123.077 33.889 122.094 34.7116 120.878 35.3333C119.658 35.9551 118.232 36.2658 116.6 36.2658C114.324 36.2658 112.408 35.7448 110.854 34.7026C109.3 33.6649 108.13 32.3027 107.344 30.6116C106.676 29.1945 106.343 27.6769 106.343 26.0588C106.343 24.1482 106.791 22.4112 107.687 20.8525C108.582 19.2892 109.785 18.0824 111.289 17.2368C112.792 16.3865 114.516 15.9614 116.454 15.9614C117.656 15.9614 118.726 16.1215 119.658 16.4322C120.591 16.7431 121.386 17.1362 122.035 17.6116C122.446 17.895 122.876 18.3017 123.324 18.8274Z" fill="#7BC7F1"/>
<path fill-rule="evenodd" clip-rule="evenodd" d="M89.7799 24.298H99.4645V27.3014H89.7799V24.298Z" fill="#7BC7F1"/>
<path d="M107.462 5.95907C96.3488 5.95907 87.3076 15.0001 87.3076 26.1131C87.3076 37.2262 96.3488 46.2671 107.462 46.2671C118.575 46.2671 127.616 37.2262 127.616 26.1131C127.616 15.0001 118.575 5.95907 107.462 5.95907ZM107.462 48.1053C95.3353 48.1053 85.4698 38.2397 85.4698 26.1131C85.4698 13.9867 95.3353 4.12134 107.462 4.12134C119.588 4.12134 129.454 13.9869 129.454 26.1131C129.454 38.2397 119.588 48.1053 107.462 48.1053Z" fill="#B0B0AF"/>
<path fill-rule="evenodd" clip-rule="evenodd" d="M121.773 89.6155H131.265V91.1171H121.773V89.6155Z" fill="#5C8C6C"/>
<path fill-rule="evenodd" clip-rule="evenodd" d="M131.656 89.6155H141.147V91.1171H131.656V89.6155Z" fill="#2A3FAA"/>
<path fill-rule="evenodd" clip-rule="evenodd" d="M141.538 89.6155H151.029V91.1171H141.538V89.6155Z" fill="#7BC7F1"/>
<path fill-rule="evenodd" clip-rule="evenodd" d="M151.42 89.6155H160.912V91.1171H151.42V89.6155Z" fill="#949392"/>
<path d="M5.05729 45.9568C5.70844 45.9568 6.32165 46.1117 6.89691 46.4215V47.6542C6.3533 47.2876 5.75585 47.1043 5.10469 47.1043C4.36504 47.1043 3.75183 47.335 3.26507 47.7964C2.77819 48.258 2.53487 48.8332 2.53487 49.5224C2.53487 50.2178 2.77667 50.7995 3.26028 51.2673C3.74401 51.7351 4.35243 51.969 5.08591 51.969C5.79392 51.969 6.39767 51.7889 6.89704 51.4285V52.6518C6.35973 52.9552 5.75925 53.107 5.09524 53.107C4.39983 53.107 3.75347 52.9458 3.15602 52.6234C2.5587 52.301 2.08921 51.8647 1.74794 51.3147C1.40654 50.7647 1.23584 50.1689 1.23584 49.5271C1.23584 48.8854 1.40503 48.2912 1.74315 47.7443C2.0814 47.1975 2.54458 46.7629 3.13245 46.4404C3.72044 46.118 4.36214 45.9568 5.05754 45.9568H5.05729ZM15.3356 53.0121L12.4243 49.8543V53.0121H11.0968V46.0705H12.4243V49.5981L15.1839 46.08H16.815L13.9606 49.6644L17.09 53.012H15.3356V53.0121ZM22.7976 53.1448C22.3045 53.1448 21.8398 53.0499 21.4036 52.8603C20.9674 52.6705 20.5864 52.4129 20.2609 52.0873C19.9353 51.7617 19.6776 51.3808 19.488 50.9446C19.2982 50.5083 19.2034 50.0405 19.2034 49.5411C19.2034 49.048 19.2982 48.5817 19.488 48.1425C19.6776 47.703 19.9353 47.3206 20.2609 46.995C20.5864 46.6695 20.9674 46.4118 21.4036 46.222C21.8398 46.0324 22.3045 45.9375 22.7976 45.9375C23.2971 45.9375 23.7649 46.0324 24.201 46.222C24.6373 46.4118 25.0182 46.6695 25.3437 46.995C25.6693 47.3206 25.927 47.703 26.1166 48.1425C26.3064 48.5818 26.4012 49.048 26.4012 49.5411C26.4012 50.0406 26.3064 50.5084 26.1166 50.9446C25.927 51.3808 25.6693 51.7617 25.3437 52.0873C25.0182 52.4129 24.6373 52.6705 24.201 52.8603C23.7648 53.0499 23.2969 53.1448 22.7976 53.1448ZM22.8023 47.1799C22.4862 47.1799 22.1922 47.2447 21.9172 47.3743C21.6438 47.5041 21.4036 47.6763 21.1981 47.8912C20.9926 48.1062 20.8315 48.3574 20.7112 48.6451C20.5912 48.9327 20.5311 49.2315 20.5311 49.5412C20.5311 49.8574 20.5912 50.1577 20.7112 50.4423C20.8314 50.7267 20.9926 50.9781 21.1981 51.1962C21.4036 51.4143 21.6438 51.5881 21.9172 51.7176C22.1922 51.8473 22.4862 51.912 22.8023 51.912C23.1183 51.912 23.4124 51.8473 23.6874 51.7176C23.9608 51.588 24.201 51.4143 24.4065 51.1962C24.612 50.9781 24.7731 50.7267 24.8934 50.4423C25.0135 50.1577 25.0735 49.8574 25.0735 49.5412C25.0735 49.2315 25.0135 48.9328 24.8934 48.6451C24.7732 48.3576 24.612 48.1062 24.4065 47.8912C24.201 47.6763 23.9608 47.5041 23.6874 47.3743C23.4124 47.2447 23.1184 47.1799 22.8023 47.1799ZM29.3776 52.1016L30.0984 51.0396C30.446 51.2797 30.8049 51.4869 31.1747 51.6606C31.5446 51.8346 31.9319 51.9214 32.3363 51.9214C32.5513 51.9214 32.741 51.8946 32.9053 51.8409C33.0695 51.7873 33.2087 51.7176 33.3226 51.6324C33.4364 51.5469 33.5216 51.4491 33.5785 51.3384C33.6353 51.2277 33.6637 51.1187 33.6637 51.0112C33.6637 50.8722 33.6211 50.7536 33.5357 50.6556C33.4505 50.5576 33.3367 50.477 33.1943 50.4138C33.0521 50.3505 32.8846 50.2969 32.6917 50.2525C32.4988 50.2083 32.2982 50.167 32.0895 50.1292C31.9504 50.104 31.7892 50.0739 31.6059 50.0391C31.4226 50.0043 31.2328 49.9569 31.0369 49.8969C30.841 49.8367 30.6481 49.7577 30.4584 49.6597C30.2688 49.5617 30.0981 49.4384 29.9463 49.2898C29.7946 49.1413 29.6728 48.9643 29.5812 48.7588C29.4895 48.5533 29.4436 48.3115 29.4436 48.0333C29.4436 47.6287 29.5258 47.292 29.6902 47.0235C29.8545 46.7547 30.0648 46.5429 30.3208 46.3881C30.577 46.2331 30.8614 46.1242 31.1743 46.0609C31.4874 45.9978 31.7892 45.9661 32.08 45.9661C32.3707 45.9661 32.6299 45.985 32.8576 46.023C33.0852 46.0609 33.297 46.1161 33.493 46.1889C33.6889 46.2616 33.88 46.3533 34.0666 46.464C34.2531 46.5745 34.4538 46.7058 34.6689 46.8574L33.9292 47.9007C33.6004 47.6731 33.2844 47.4991 32.9809 47.3791C32.6775 47.259 32.3581 47.199 32.0232 47.199C31.9093 47.199 31.7797 47.2132 31.6342 47.2417C31.4889 47.2701 31.3514 47.316 31.2217 47.3792C31.0921 47.4424 30.9846 47.523 30.8994 47.621C30.8139 47.7191 30.7714 47.8376 30.7714 47.9767C30.7714 48.1157 30.822 48.2329 30.9231 48.3275C31.0242 48.4224 31.1538 48.5014 31.3119 48.5647C31.47 48.6278 31.6438 48.6816 31.8334 48.7259C32.0231 48.7702 32.2065 48.8144 32.3833 48.8587C32.5161 48.8902 32.6727 48.9218 32.8527 48.9535C33.0328 48.9851 33.2194 49.0294 33.4122 49.0862C33.6051 49.1431 33.7963 49.2189 33.9861 49.3138C34.1757 49.4086 34.3447 49.5304 34.4934 49.6789C34.6419 49.8274 34.7622 50.0108 34.8538 50.2288C34.9455 50.4469 34.9914 50.7108 34.9914 51.0205C34.9914 51.381 34.9281 51.6939 34.8016 51.9594C34.6752 52.2249 34.495 52.4445 34.2612 52.6184C34.0272 52.7923 33.7491 52.9234 33.4267 53.012C33.1042 53.1005 32.747 53.1447 32.3551 53.1447C31.9947 53.1447 31.677 53.1177 31.402 53.0641C31.127 53.0103 30.8758 52.9376 30.6481 52.8459C30.4205 52.7543 30.2056 52.6453 30.0032 52.5189C29.801 52.3924 29.5924 52.2533 29.3773 52.1016H29.3776ZM45.1656 46.08V53.012H43.838V49.5033L41.6664 52.1112L39.5043 49.5033V53.012H38.1768V46.08H38.262L41.6664 50.0818L45.0802 46.08H45.1656ZM50.2852 53.012H48.9576V46.08H50.2852V53.012ZM57.4816 45.9567C58.1327 45.9567 58.7459 46.1116 59.3212 46.4214V47.6541C58.7776 47.2875 58.1801 47.1042 57.529 47.1042C56.7893 47.1042 56.1761 47.3349 55.6894 47.7963C55.2025 48.2578 54.9592 48.8331 54.9592 49.5223C54.9592 50.2177 55.201 50.7994 55.6846 51.2671C56.1683 51.735 56.7767 51.9688 57.5102 51.9688C58.2182 51.9688 58.822 51.7888 59.3213 51.4284V52.6516C58.784 52.9551 58.1836 53.1069 57.5195 53.1069C56.8241 53.1069 56.1778 52.9456 55.5803 52.6233C54.983 52.3009 54.5135 51.8646 54.1722 51.3145C53.8308 50.7646 53.6601 50.1688 53.6601 49.527C53.6601 48.8853 53.8293 48.2911 54.1674 47.7442C54.5057 47.1973 54.9689 46.7628 55.5567 46.4403C56.1447 46.1179 56.7864 45.9567 57.4818 45.9567H57.4816Z" fill="#5C8C6C"/>
</svg>
